<?xml version="1.0" encoding="UTF-8"?><svg id="a" xmlns="http://www.w3.org/2000/svg" viewBox="0 0 518.81 616.23"><defs><style>.b{fill:#bab8b9;}.c{fill:#fff;}.d{fill:#e5e3e6;}.e{fill:#949192;}.f{fill:#eceaed;}.g{fill:#dddcdf;}.h{fill:#afadae;}.i{fill:#991b1e;}.j{fill:#716f70;}.k{fill:#8c8989;}.l{fill:#908e8e;}.m{fill:#a4a2a3;}.n{fill:#676465;}.o{fill:#d7d7d6;}.p{fill:#999698;}.q{fill:#828182;}.r{fill:#1a1617;}.s{fill:#373636;}.t{fill:#c9c7c7;}.u{fill:#0d3232;}.v{fill:#b5b3b4;}.w{fill:#585757;}.x{fill:#787676;}.y{fill:#515051;}.a`{fill:#efeff1;}.aa{fill:#d0d0d0;}.ab{fill:#c1c0c0;}</style></defs><path class="s" d="M404.35,198.55c-1.84-4.69-2.72-10.65-10.29-7.81-.79-.2-1.58-.39-2.36-.59,1.19-1.82,2.39-3.63,3.6-5.48-.28-.18-1.17-.76-2.07-1.34,1.65-.53,3.43-.83,4.88-1.69,.61-.36,.5-1.92,.71-2.93,.01-.33,.03-.66,.05-.99-.31-2.56-.63-5.13-.94-7.69,1.31-4.5,5.26-9.1-.55-13.31-.03-.54-.07-1.08-.1-1.62,.45-1.72,.9-3.44,1.34-5.15,1.42-1.76,2.64-3.74,4.29-5.23,2.52-2.27,5.36-4.36,7.26,.76-1.04,6.97-2.09,13.94-3.13,20.9-2.58,2.91-2.11,5.73,.26,8.49-2.47,5.76-3.94,11.49-1.52,17.81,.59,1.54-.91,3.89-1.45,5.86Z"/><path class="y" d="M296.04,392.53c.15-.17,.39-.52,.45-.49,4.13,1.93,9.76,12.17,9.66,16.17-.19,7.41,.16,14.82,.28,22.24-3.15,.3-6.29,.59-9.44,.89l-.22,.47c-.79-.09-1.58-.17-2.37-.26-.2-1.25-.41-2.51-.61-3.76-.06-6.03-.47-12.08-.09-18.08,.36-5.75,1.52-11.46,2.33-17.18Z"/><path class="b" d="M272.92,374.5c5.43-4.16,9.32-2.22,12.36,3.11-2.8,2.32-5.6,4.64-8.42,6.97,.77,.4,2.73,1.41,4.69,2.42,4.06,10.6,3.43,21.4,1.41,32.26-.73,.09-1.47,.18-2.2,.27h.08c-.78,.4-1.55,.8-2.33,1.21-.47-1.8-.94-3.6-1.41-5.4-.41-2.88-.82-5.76-1.23-8.65l-.02-1.47c.02-.27,.05-.54,.06-.8,2.38-2.3,3.62-4.32-1.2-4.82,6.21-3.41,6.56-5.5,.65-9.21-3.08-1.93-7.09-2.36-10.68-3.47-.04-.66-.08-1.31-.12-1.97l.11-7.62-.03,.03c2.79,.91,5.59,1.83,9.94,3.25-.76-2.8-1.21-4.45-1.66-6.1Z"/><path class="m" d="M306.88,334.63c.12,.37,.29,.73,.34,1.11,.02,.15-.2,.34-.31,.51-1.74,2.61-3.48,5.23-5.22,7.84-1.64-1.95-3.28-3.91-4.92-5.86,1.03-.13,2.05-.25,3.34-.41-1.36-1.48-2.41-2.62-3.45-3.76-.01-1.02-.03-2.05-.04-3.07,5.26-9.72,3.69-18.59-3.48-26.61,1.23-1.32,2.3-2.47,3.37-3.61-1.34-2.88-2.69-5.77-4.03-8.65,.06-.46,.04-.91-.06-1.36l.15-.03c2.36-1.87,4.72-3.74,7.09-5.61h1.42c.77,7.19,1.53,14.37,2.33,21.86,2.05-.53,3.12-.8,4.19-1.08-.09,4.84-.18,9.67-.27,14.51-4.41,3.63-5.69,8.29-4.65,13.78,1.51,.17,2.86,.32,4.21,.47Z"/><path class="q" d="M505.39,17.35c-5.46,5.59-10.92,11.17-16.38,16.76-.27-1.09-.54-2.18-.82-3.27h0c-.94-3.39-1.75-6.83-2.88-10.15-.62-1.83-1.78-3.47-2.69-5.2-.01-1.39-.03-2.79-.04-4.18,6.39-4.12,13.73-4.62,20.96-5.55,.77,.84,1.54,1.68,2.32,2.53-3.1,2.93-7.15,5.76-.48,9.06Z"/><path class="y" d="M482.58,11.31c.01,1.39,.03,2.79,.04,4.18-.23,1.82-.39,3.65-.71,5.45-1.1,6.17-2.27,12.34,3.79,16.9-3.11,4.37-6.13,8.81-9.38,13.08-1.38,1.82-3.23,3.27-4.87,4.89-.08-1.75-.16-3.5-.24-5.25,1.48-5.18,2.95-10.36,4.42-15.54,.46,.47,.93,.94,1.39,1.41l1.01,1.48c-.34-.49-.69-.97-1.03-1.46-.47-.46-.94-.93-1.41-1.39-.19-1.36-.58-2.73-.55-4.09,.2-8.04,.51-16.09,.78-24.13,2.25,1.49,4.5,2.98,6.76,4.48Z"/><path class="j" d="M281.56,387c-1.96-1.01-3.93-2.02-4.69-2.42,2.82-2.33,5.62-4.65,8.42-6.97,2.95,3.82,5.9,7.63,8.85,11.45,.55,1.18,1.11,2.36,1.66,3.54l.26-.07c-.81,5.72-1.98,11.43-2.33,17.18-.37,6,.03,12.05,.1,18.08-1.65-.63-3.31-1.26-4.97-1.89-.14-9.28-.11-18.56-.46-27.83-.18-4.78-.76-9.72-6.81-11.07Z"/><path class="w" d="M391.7,190.15c.79,.2,1.57,.39,2.36,.59-10.32,4.27-12.09,15.68-18.98,22.84-1.95,2.03-3.16,4.78-4.71,7.2-4.07-.41-8.13-.82-12.2-1.23,2.66-2.98,5.31-5.98,7.99-8.95,1.56-1.73,3.17-3.4,4.76-5.11,2.32-3.18,4.64-6.37,6.97-9.55,.89-.59,1.79-1.19,2.68-1.78,1.45-.42,2.9-.85,4.36-1.27,.42-.42,.84-.84,1.26-1.26,.5-.51,1-1.02,1.49-1.54,1.34,.02,2.68,.04,4.01,.06Z"/><path class="d" d="M404.35,198.55c.54-1.98,2.04-4.32,1.45-5.86-2.42-6.32-.94-12.05,1.52-17.81,1.92-.52,3.85-1.05,5.77-1.57,1.54,2.68,3.07,5.36,4.61,8.04l-1.91,1.27c-1.65-1.74-3.3-3.47-5.6-5.9v26.88c10.01,5.71,12.64,12.18,6.56,19.02,.2-6.71-2.04-11.22-7.76-14.58-2.53-1.49-3.15-6.22-4.64-9.48Z"/><path class="x" d="M236.75,496.11c-4.57,2.86-9.15,5.71-13.72,8.57-1.93-1.01-3.87-2.03-5.8-3.04l-.11-6.87c.93-.95,1.87-1.9,2.81-2.86,.38,1.24,.75,2.47,1.13,3.71l1.22-.23c.32-2.11,.65-4.23,1.17-7.62,1.33,3.09,2.17,5.03,3.01,6.97,.33-.03,.66-.06,.99-.08v-13.7c3.75,1.55,7.03,2.91,10.31,4.27-.02,1.18-.04,2.37-.06,3.55-.27,1.5-.53,3.01-.8,4.51-.04,.94-.09,1.88-.13,2.82Z"/><path class="q" d="M454.55,76.7c-4.97,3.83-9.94,7.67-14.91,11.5-2.03-.07-4.07-.14-6.1-.21,.03-.43,.08-.86,.13-1.29,.17-.08,.35-.13,.49-.25,.08-.06,.07-.23,.1-.35l-.52,.66c-3.5-2.29-7-4.58-10.35-6.77-1.08,1-2.46,2.27-3.84,3.55-.86-1.27-1.73-2.54-2.59-3.81,3.26-2.79,6.52-5.57,9.77-8.36,1.37,.86,2.74,1.71,4.11,2.57,.52,9.08,1.65,9.8,10.12,6.52,.83-.32,1.73-.47,2.6-.7l5.58-2.87c.76-1.07,1.52-2.14,2.71-3.83,.99,1.34,1.85,2.5,2.7,3.65Z"/><path class="g" d="M370.87,225.09c.44,1.24,.88,2.47,.96,2.69-6.88,1.42-13.95,2.88-21.03,4.35-5.43,1.84-10.85,3.69-16.28,5.53-2.52,.81-5.26,1.22-7.51,2.51-3.72,2.12-7.12,4.81-10.66,7.25v-1.44c1.58-1.75,3.17-3.5,4.76-5.25,1.7-1.45,3.4-2.9,5.1-4.36l14.68-9.85c.65,.12,1.3,.23,1.95,.35,1.16,.63,2.86,2.11,3.41,1.76,7.73-4.85,16.28-3.41,24.62-3.54Z"/><path class="e" d="M219.91,491.91c-.93,.95-1.87,1.9-2.8,2.86-1.16,.98-2.33,1.96-3.48,2.93-.67-.94-1.4-1.97-2.14-3-.01-1.86-.02-3.73-.03-5.59,.31-5.7,.63-11.4,.94-17.11-.17-1.75-.35-3.5-.52-5.25,.47-.98,.95-1.95,1.42-2.93,.36-.44,.73-.88,1.09-1.32,2.25,4.67,4.5,9.35,6.75,14.02l-1.22,15.38Z"/><path class="q" d="M263.38,469.98c-4.05,10-13.6,14.27-21.31,20.44-.37-3.7-.74-7.4-1.11-11.09,1.45-.53,2.93-1.58,4.34-1.49,2.58,.16,5.13,.99,7.88,1.59,.55-5.73,.96-9.91,1.36-14.1,.07-.94,.13-1.87,.2-2.81,.98,.01,1.96,.02,2.94,.03,.92,0,1.84,0,2.75-.01,.98,2.48,1.96,4.97,2.94,7.45Z"/><path class="n" d="M433.54,87.99c2.03,.07,4.07,.14,6.1,.21-2.05,2.75-4.11,5.49-6.16,8.24-2.7,1.78-5.41,3.56-8.11,5.34,.37,.56,.74,1.12,1.11,1.69-6.13-.05-12.14,.17-15.06,7-.78-.36-2.13-.59-2.24-1.09-.4-1.85-.38-3.78-.53-5.69l.08-.12c.9-.59,1.79-1.18,2.69-1.77l4.11-1.15c.5-.42,1.01-.83,1.51-1.25l-.04,.07c.89-.11,1.77-.21,2.66-.32,1.08-.98,2.15-1.97,3.23-2.95,2.2-2.23,4.41-4.47,6.61-6.7,1.34-.51,2.69-1.01,4.03-1.52Z"/><path class="e" d="M316.35,247.42c3.54-2.45,6.94-5.13,10.66-7.25,2.25-1.28,4.99-1.7,7.51-2.51,.04,1.06,.08,2.11,.13,3.17-2.74,4.11-5.48,8.21-8.23,12.32-3.72,1.85-7.45,3.7-11.17,5.55-2.03,.32-4.07,.64-6.1,.97,1.53-2.22,3.05-4.43,4.58-6.65,1.46-.3,2.91-.6,4.37-.9l-1.7-1.9c-.02-.93-.03-1.86-.05-2.79Z"/><path class="g" d="M326.42,253.15c2.74-4.11,5.48-8.21,8.23-12.32,1.84-.54,3.69-1.08,5.53-1.62,1.92,.91,3.85,1.83,5.77,2.74,2.72,1.6,5.44,3.19,8.16,4.79-1.28,.63-3.27,2.13-3.73,1.75-7.43-6.05-12.89,.38-18.98,2.74-1.66,.64-3.32,1.28-4.98,1.92Z"/><path class="g" d="M407.06,166.38c1.04-6.97,2.09-13.94,3.13-20.9,1.27-1.15,2.53-2.3,3.8-3.46-1.19-1.16-2.36-2.34-3.59-3.46-1.01-.91-2.09-1.73-3.14-2.6,1.32-1.99,2.65-3.99,3.97-5.98,.97-.45,1.94-.91,2.9-1.36,.96,1.88,1.92,3.77,2.88,5.65-2.5,10.4-4.97,20.8-7.59,31.17-.12,.48-1.56,.62-2.38,.93Z"/><path class="q" d="M407.06,166.38c.82-.3,2.26-.45,2.38-.93,2.62-10.37,5.09-20.77,7.59-31.17,1.07,2,3.3,4.2,2.99,5.96-.76,4.45-2.59,8.74-4.11,13.05-2,5.68-5.12,11.14-3.08,17.53-.37,.05-.74,.1-1.11,.16l.86,1.26c0,.44,.18,.79,.52,1.07-1.92,.52-3.85,1.05-5.77,1.57-2.38-2.76-2.84-5.58-.26-8.49Z"/><path class="h" d="M370.87,225.09c-8.34,.12-16.89-1.32-24.62,3.54-.55,.35-2.25-1.13-3.41-1.76,.79-1.51,1.58-3.02,2.37-4.53,1.13,.19,2.27,.38,3.4,.57l2.7-2h0c2.01-.41,4.02-.83,6.03-1.26l.43,.02,.41-.12c4.07,.41,8.13,.82,12.2,1.23,1.32,.72,2.64,1.45,5.04,2.76l-4.54,1.55Z"/><path class="o" d="M264.67,377.32c-.04,2.54-.07,5.08-.11,7.61-.92-.18-1.84-.36-2.76-.53l-6.28-3.53c-.07-2.11-.14-4.23-.21-6.34,2.32-.88,4.63-1.76,6.95-2.65l2.88-.68,4.7-1.34c1.02,1.55,2.05,3.09,3.07,4.64,.45,1.65,.9,3.3,1.66,6.1-4.35-1.42-7.14-2.34-9.94-3.25-.19-.11-.38-.23-.57-.34l.59,.31Z"/><path class="n" d="M307.59,305.88c-1.07,.28-2.14,.55-4.19,1.08-.8-7.49-1.56-14.67-2.33-21.85,2.08-.88,4.15-1.75,6.23-2.63,.09,1.75,.18,3.49,.27,5.24,0,1.07,0,2.14,0,3.21,0,4.99,.01,9.97,.02,14.96Z"/><path class="v" d="M265.15,371.2c-.96,.23-1.92,.45-2.88,.68-1.88-4.82-3.75-9.64-5.62-14.46,.81-3.15,1.63-6.3,2.44-9.45,4.14,3.31,8.71,6.33,8.35,12.61-.83,.09-1.65,.19-2.48,.28-.44,.48-.87,.97-1.31,1.45,.5,2.96,1,5.92,1.5,8.89Z"/><path class="j" d="M354.12,246.73c-2.72-1.6-5.44-3.19-8.16-4.79,8.39-1.18,16.77-2.36,25.15-3.54l.75,3.7c-5.91,1.54-11.83,3.09-17.74,4.63Z"/><path class="n" d="M299.64,445.22c-2.72,2.11-5.45,4.21-8.17,6.32-1.94-1.05-3.88-2.1-5.82-3.14-.96-.17-1.92-.35-2.87-.52l.13-.39c.02-1.94,.04-3.88,.05-5.82,1.78,.49,3.57,.99,5.35,1.48,3.42,4.16,5.54,2.41,7.16-1.58l1.31-9.77s.22-.47,.21-.46c1.17,2.36,2.84,4.6,3.36,7.09,.45,2.12-.43,4.51-.72,6.79Z"/><path class="y" d="M282.71,457.98c-3.69,3.18-7.37,6.37-11.06,9.55,.24-.32,.28-.66,.12-1.03-.43-2.26-.85-4.52-1.28-6.78l-.06-6.81,2.57-1.49h.01c1.16,2.44,2.31,4.87,4.1,8.63,.81-4.41,1.38-7.5,2.01-10.9,1.63,1.44,2.78,2.45,3.93,3.46,.41-.06,.78,.03,1.11,.29-.49,1.7-.97,3.4-1.46,5.1Z"/><path class="t" d="M211.49,494.69c.73,1.03,1.46,2.06,2.14,3,1.15-.97,2.32-1.95,3.48-2.93,.04,2.29,.08,4.58,.11,6.87-.02,2.83-.05,5.66-.07,8.49-1.22,1.29-2.44,2.58-3.67,3.87l-2-.32v-18.98Z"/><path class="q" d="M411.42,110.47c2.92-6.83,8.93-7.05,15.06-7-.37-.56-.74-1.12-1.11-1.69,2.7-1.78,5.41-3.56,8.11-5.34-1.69,2.89-3.38,5.78-5.06,8.66-2.9,1.02-5.96,1.77-8.59,3.26-.56,.32,.44,3.36,.72,5.15-.48,.65-.95,1.29-1.43,1.94-1.04-.18-2.07-.36-3.11-.54-1.09-1.48-2.18-2.96-3.26-4.45-.44,0-.89,0-1.33,0Z"/><path class="q" d="M307.3,282.47c-2.08,.88-4.15,1.75-6.23,2.63-.47,0-.95,0-1.42,0-.03-1.39-.05-2.77-.07-4.16,0-3.31,.01-6.62,.02-9.92,.94,.67,1.87,1.33,2.35,1.67,1.95-2.24,3.47-3.99,4.99-5.73l.37,15.52Z"/><path class="k" d="M296.62,330.97c.01,1.02,.03,2.05,.05,3.07-.61,.86-1.22,1.72-1.83,2.58-2.17-3.63-4.34-7.26-6.52-10.89,.24-2.31,.73-4.62,.64-6.91-.08-2.06-.79-4.1-1.23-6.15,2.09,3.68,4.33,7.29,6.24,11.07,1.15,2.28,1.79,4.81,2.65,7.23Z"/><path class="s" d="M414.14,128.63c-.97,.45-1.94,.91-2.9,1.36-2.8,.95-5.59,1.9-8.39,2.85,4.2-5.57,8.4-11.14,12.59-16.7,0,1.31,.01,2.61,.02,3.92l-.02-.21,.19,.44-1.49,8.34Z"/><path class="s" d="M299.64,445.22c.29-2.27,1.16-4.67,.72-6.79-.52-2.49-2.19-4.74-3.36-7.09,3.15-.3,6.29-.6,9.44-.9,1.19,6.52,.51,12.17-6.79,14.77Z"/><path class="k" d="M465.89,61.63c-2.69,3.42-5.37,6.85-8.06,10.27-.14-.25-.3-.49-.48-.72l-1.84-1.18-.69,.03c-.46-.76-.92-1.52-1.39-2.28l2.64-4.79c.04-.85,.09-1.7,.13-2.55,.44-1.47,.88-2.95,1.31-4.42,1.82,.02,3.64,.04,5.47,.05-.69,1.55-1.37,3.11-2.27,5.13l4.93,.23,.24,.23Z"/><path class="l" d="M512.1,1.75c2.24-.54,4.47-1.07,6.71-1.61-1.53,2.36-3.07,4.73-4.61,7.09-6.38,.24-8.63,4.2-8.95,9.92l.13,.2c-6.67-3.3-2.62-6.13,.48-9.06-.78-.85-1.55-1.69-2.32-2.53,2.09-.39,4.28-.54,6.24-1.27,.97-.36,1.56-1.79,2.31-2.73Z"/><path class="m" d="M268.85,306.55c.97-2.01,1.94-4.02,2.91-6.03,.87,1.83,1.74,3.67,2.61,5.5-.33,.52-.67,1.04-.97,1.59-.01,.02,.33,.25,.5,.37l.63-1.82c1.18-.66,2.36-1.32,4.1-2.3,0,1.82,0,2.89,0,3.95-.47,2.68-.95,5.36-1.42,8.05l.08-.06c-2.81-3.08-5.62-6.16-8.43-9.24Z"/><path class="b" d="M306.94,266.95c-1.52,1.74-3.04,3.49-4.99,5.73-.47-.34-1.41-1-2.35-1.67-.05-.86-.1-1.72-.14-2.58-.45-.98-.91-1.96-1.36-2.94l8.11-5.98c.4,.12,.79,.26,1.18,.41l.48,1.53c.52,.92,1.04,1.84,1.55,2.77-.82,.91-1.65,1.83-2.47,2.74Z"/><path class="j" d="M263.38,469.98c-.98-2.48-1.96-4.97-2.94-7.45,.04-5.56,.08-11.12,.13-16.68h1.22c.92,1.93,2.16,3.78,2.69,5.81,.8,3.09,1.09,6.31,1.6,9.48-.48,2.78-.95,5.56-1.43,8.34-.4,.23-.82,.39-1.27,.49Z"/><path class="h" d="M485.7,37.83c-6.06-4.56-4.89-10.72-3.79-16.9,.32-1.8,.48-3.63,.71-5.45,.91,1.73,2.07,3.37,2.69,5.2,1.13,3.33,1.94,6.76,2.88,10.15l-1.34,5.87c-.38,.37-.77,.75-1.15,1.12Z"/><path class="h" d="M287.73,312.67c.43,2.05,1.15,4.09,1.23,6.15,.09,2.29-.4,4.61-.64,6.91-1.72-.97-3.45-1.94-5.18-2.91,.59-1.13,1.17-2.26,2.02-3.88h-5.35c-.84-1.05-1.69-2.1-2.53-3.15l-.08,.06c3.27-.93,6.55-1.86,9.82-2.8,.11-.37,.34-.5,.71-.39Z"/><path class="p" d="M454.82,70.03s.69-.03,.7-.03c.62,.39,1.23,.79,1.84,1.18,.18,.23,.34,.47,.48,.72,2.07,1.35,4.14,2.71,7.35,4.8-4.23,0-7.43,0-10.64,0-.86-1.16-1.71-2.31-2.7-3.65-1.19,1.69-1.95,2.76-2.71,3.83-1.38-3.27-2.76-6.55-4.14-9.82,1.24,.04,2.49,.08,3.73,.12,2.03,.95,4.06,1.9,6.09,2.85Z"/><path class="n" d="M259.09,347.98c-.81,3.15-1.63,6.3-2.45,9.45-1.02,2.42-2.04,4.84-3.06,7.26-.09-1.32-.18-2.64-.27-3.96-.04-1.1-.07-2.2-.11-3.31,.03-1.72,.06-3.43,.09-5.15,.05-2.62,.09-5.24,.14-7.87l-.22-.36,.31-.29c1.85,1.41,3.71,2.82,5.56,4.23Z"/><path class="l" d="M340.18,239.2c-1.84,.54-3.69,1.08-5.53,1.62-.04-1.05-.08-2.11-.13-3.17,5.43-1.84,10.86-3.69,16.28-5.53-3.54,2.36-7.08,4.72-10.62,7.07Z"/><path class="n" d="M265.15,371.2c-.5-2.96-1-5.92-1.5-8.89,.43-.49,.87-.97,1.31-1.45,.83-.09,1.65-.19,2.48-.28,5.97,1.75,1.17,6.3,2.42,9.28-1.57,.45-3.14,.89-4.7,1.34Z"/><path class="n" d="M301.7,344.08c1.74-2.61,3.48-5.22,5.22-7.84,.3,4.64,.61,9.29,.91,13.93l-2.01,.7c-1.38-2.26-2.75-4.53-4.13-6.79Z"/><path class="n" d="M306.88,334.63c-1.35-.15-2.7-.3-4.21-.47-1.04-5.49,.23-10.15,4.65-13.78-.15,4.75-.29,9.5-.44,14.25Z"/><path class="m" d="M211.07,441.69c1.54-.08,3.08-.17,4.62-.25l-1.39,8.66c-.69-.49-1.38-.99-2.07-1.48l-1.68-.26c.17-2.22,.34-4.45,.52-6.67Z"/><path class="m" d="M420.55,113.53c-.28-1.79-1.28-4.83-.72-5.15,2.63-1.5,5.69-2.25,8.59-3.26-2.62,2.81-5.24,5.61-7.87,8.41Z"/><path class="t" d="M212.39,472c-.31,5.7-.63,11.4-.94,17.11,.31-5.7,.63-11.4,.94-17.11Z"/><path class="t" d="M240.95,479.32c.37,3.7,.74,7.39,1.11,11.09-.75,.52-1.5,1.04-2.25,1.56-.71-1.06-1.43-2.13-2.14-3.19,.02-1.18,.04-2.37,.07-3.55,1.95-1.49-2.75-6.6,3.21-5.91Z"/><path class="t" d="M213.29,463.82c-.47,.98-.95,1.95-1.42,2.93,.03-5.1,.07-10.19,.1-15.29,.44,4.12,.88,8.24,1.33,12.36Z"/><path class="k" d="M471.21,50.56c.08,1.75,.16,3.5,.24,5.25-1.85,1.94-3.71,3.89-5.56,5.83l-.24-.23c.07-1.81,.13-3.62,.2-5.43,.49-1.9,.98-3.8,1.47-5.7l3.89,.28Z"/><path class="q" d="M264.64,469.48c.48-2.78,.95-5.56,1.43-8.34,.93,0,1.85,.02,2.78,.03l2.92,5.33c.16,.37,.12,.71-.12,1.03-2.34,.65-4.67,1.3-7.01,1.95Z"/><path class="e" d="M217.15,510.13c.02-2.83,.05-5.66,.07-8.49,1.94,1.01,3.87,2.03,5.8,3.04-1.96,1.82-3.92,3.63-5.87,5.45Z"/><path class="q" d="M505.26,17.15c.31-5.71,2.57-9.67,8.95-9.92-2.98,3.31-5.96,6.61-8.95,9.92Z"/><path class="v" d="M212.89,405.39l-1.47-.31c-.05-3.17-.11-6.34-.16-9.51l1.63-.14c.24,.23,.48,.46,.72,.69l-.71,9.27Z"/><path class="k" d="M213.29,463.82c-.44-4.12-.88-8.24-1.33-12.36-.02-.58-.05-1.17-.08-1.75,.12-.36,.24-.72,.35-1.09,.69,.49,1.38,.99,2.07,1.48,.03,3.23,.05,6.47,.07,9.7,0,.9,0,1.8,0,2.7-.36,.44-.73,.88-1.09,1.32Z"/><path class="j" d="M285.65,448.4c1.94,1.05,3.88,2.1,5.82,3.14-1.94,.42-3.89,.85-5.83,1.27h.02c0-1.47,0-2.94,0-4.41Z"/><path class="p" d="M309.41,264.21c-.52-.92-1.04-1.84-1.55-2.77,.47-.52,.94-1.03,1.41-1.55l-.11-.23c2.03-.32,4.06-.64,6.1-.97-1.95,1.84-3.9,3.67-5.84,5.51Z"/><path class="o" d="M279.81,318.94h5.35c-.85,1.63-1.43,2.75-2.02,3.88-1.11-1.29-2.22-2.59-3.33-3.88Z"/><path class="q" d="M486.86,36.71l1.34-5.87h0c.26,1.1,.52,2.2,.77,3.29-.7,.86-1.41,1.72-2.11,2.58Z"/><path class="j" d="M282.71,457.98c.49-1.7,.97-3.4,1.46-5.1,.49-.02,.99-.05,1.48-.07h-.02c-.97,1.72-1.95,3.44-2.92,5.17Z"/><path class="m" d="M415.46,120.05c0-1.31-.01-2.61-.02-3.92,.23-.38,.42-.78,.57-1.21,1.04,.18,2.07,.36,3.11,.54-1.16,1.61-2.33,3.21-3.49,4.82l-.19-.44,.02,.21Z"/><path class="l" d="M294.83,336.63c.61-.86,1.22-1.72,1.83-2.58,1.04,1.14,2.09,2.28,3.45,3.77-1.29,.16-2.32,.28-3.34,.41-.65-.53-1.29-1.06-1.94-1.59Z"/><path class="m" d="M237.67,488.78c.71,1.06,1.43,2.13,2.14,3.19-.05,.46-.14,.91-.26,1.36-.89-.01-1.78-.02-2.68-.04l.8-4.51Z"/><path class="m" d="M307.57,290.92c0-1.07,0-2.14,0-3.21,0,1.07,0,2.14,0,3.21Z"/><path class="t" d="M236.87,493.29c.89,.01,1.78,.02,2.68,.04-.93,.93-1.87,1.86-2.8,2.78,.04-.94,.09-1.88,.13-2.82Z"/><path class="y" d="M295.79,392.6c-.55-1.18-1.11-2.36-1.66-3.54,.55,1.18,1.11,2.36,1.66,3.54Z"/><path class="h" d="M488.97,34.14c-.26-1.1-.52-2.19-.77-3.29,.27,1.09,.55,2.18,.82,3.27l-.04,.02Z"/><path class="t" d="M212.24,448.62c-.11,.37-.22,.73-.35,1.09-.44-.45-.89-.9-1.33-1.35,.56,.09,1.12,.17,1.68,.26Z"/><path class="d" d="M412.57,172.23l-.86-1.26c.37-.05,.74-.1,1.11-.16-.08,.47-.17,.94-.25,1.41Z"/><path class="l" d="M400.1,1.76c6.92-.46,13.85-.92,20.77-1.38-1.54,.97-3.12,1.87-4.59,2.93-1.22,.88-2.3,1.94-3.44,2.91,1.38,.76,2.76,1.52,4.14,2.28-.03,1.86-.05,3.73-.08,5.59-4.27-.46-4.22,2.38-4.21,5.36,.04,15.34-.2,30.68,.16,46.01,.11,4.78,1.77,9.53,2.73,14.29-1,1.78-1.99,3.56-2.99,5.34-.46,1.95-.91,3.91-1.37,5.86-.37,1.98-.74,3.96-1.12,5.94l-1.54,3.99c.06,.9,.12,1.79,.18,2.69l-.09,.12c-1.43-.53-2.86-1.07-4.28-1.6-1.12-2.42-2.23-4.84-4.13-8.95-.43-1.06,8.69-2.99,1.32-6.46-.03-.63-.07-1.26-.1-1.9-.27-3.75-.54-7.51-.81-11.26,.39-2.15,.79-4.3,1.18-6.45,1.27-.67,3.65-1.36,3.64-2-.2-9.53-.71-19.05-1.15-28.57-.42-.98-.83-1.95-1.25-2.93-.99-10.61-1.97-21.22-2.96-31.82Z"/><path class="ab" d="M416.98,8.51c-1.38-.76-2.76-1.52-4.14-2.28,1.14-.98,2.22-2.04,3.44-2.91,1.47-1.06,3.06-1.96,4.59-2.93,4.76,.4,9.52,.81,14.28,1.21-.65,11.35-1.29,22.71-1.93,33.92q-7.58,1.85-10.81,9.37c.1-4.7,.19-9.4,.29-14.1,1.67,.57,3.35,1.15,5.92,2.03-.68-5.07-1.28-9.51-1.91-14.19-2.43,.43-3.98,.71-5.53,.99,.66-4.48,4.19-10.04-4.19-11.1Z"/><path class="b" d="M453.29,1.62c.45-.02,.9-.05,1.35-.1,.33,1.27,.66,2.54,.99,3.81l1.16-.13,.79-3.68c2.37-.24,4.74-.49,7.11-.73,.37,1.17,.74,2.35,1.12,3.52,0,5.12,.01,10.24,.02,15.35-1.94-.36-4.65-.05-5.68-1.21-4.12-4.65-7.83-3.38-11.76-.07l-3.49-4.53-4.19-1.49c-.94-3.61-1.89-7.21-2.83-10.82,1.4-.13,2.79-.25,4.19-.38,3.66,2.18,7.41,1.87,11.22,.45Z"/><path class="m" d="M437.88,1.55c.94,3.61,1.89,7.21,2.83,10.82-1.4,4.14-4.24,8.4-3.9,12.39,.8,9.46-2.36,17.59-5.94,25.81-1.78-.1-3.57-.19-5.35-.29l-3.11-5.39q3.23-7.52,10.81-9.37c.64-11.22,1.28-22.57,1.93-33.92,.91-.02,1.82-.03,2.73-.05Z"/><path class="j" d="M400.1,1.76c.99,10.61,1.97,21.22,2.96,31.82-.1,.71-.2,1.42-.3,2.12-1.3-.25-2.6-.49-3.9-.73,.04-3.71,.07-7.41,.11-11.12,1.4-3.54,3.66-7.34-2.6-8.54,.29-2.68,1.03-5.42,.67-8.02-.16-1.16-2.53-2-3.89-2.99,.48-.94,.96-1.87,1.45-2.81l5.51,.26Z"/><path class="ab" d="M394.59,1.5c-.48,.94-.96,1.87-1.45,2.81-.4,1.01-.79,2.02-1.19,3.02-1.02,2.68-2.04,5.37-3.06,8.05-.44,.02-.88,.07-1.32,.13-5.95-4.29-1.73-9.65-1.54-14.59-.04-.32,.01-.63,.15-.93,2.8,.5,5.61,1,8.41,1.5Z"/><path class="p" d="M265.99,160.06c2.4-1.97,4.8-3.93,7.2-5.9,2.28-1.15,4.56-2.31,6.84-3.46,1.4-.5,2.8-.99,4.19-1.49l4.15,.48c.02,.91,.04,1.81,.07,2.72-.49,.33-.99,.67-1.48,1l1.44-1.05c.57-.06,1.14-.12,1.71-.18,.81,.14,1.61,.28,2.42,.42l5.3,9.66s-.43-.08-.43-.08c-2.06,.92-4.12,1.85-6.18,2.77l-5.66-1.21c-2.72,2.63-5.85,4.97-8.04,7.99-1.68,2.32-2.17,5.5-3.19,8.3-.7-2.94-1.39-5.88-2.53-10.69-2.45,3.33-4.17,5.68-5.9,8.02-1.36,1.91-2.7,3.84-4.07,5.74-1.35,1.87-2.74,3.71-4.11,5.56-1.42,.05-2.84,.09-4.26,.14l-2.26-3.55,.66,.04,.04,.65c4.06-6.73,8.19-13.41,12.12-20.21,.99-1.71,1.34-3.79,1.98-5.7Z"/><path class="k" d="M274.36,306.03c-.87-1.83-1.74-3.67-2.61-5.5,7.82-7.29,8.94-16.68,8.3-26.61,1.39-.02,2.77-.04,4.16-.06-1.46,7.72,1.53,13.23,8.35,16.84l-.15,.03c-.15,.14-.47,.33-.44,.4,.11,.34,.32,.64,.5,.96,1.34,2.88,2.69,5.77,4.04,8.65-2.31,1.36-4.63,2.72-6.94,4.08-1.81,.85-3.62,1.7-5.43,2.55-1.84,.15-3.68,.29-5.52,.44v-3.95c-1.74,.98-2.92,1.64-4.1,2.3l-.16-.14Z"/><path class="p" d="M281.4,218.73c-1.99-.44-3.95-1.1-5.96-1.29-5.49-.53-11-.87-16.51-1.28,3.25-1.71,6.5-3.41,11.1-5.82-2.78-1.97-4.81-3.4-6.84-4.84,0-1.86,.01-3.72,.02-5.58,.94-.95,1.87-1.9,2.81-2.85,1.37-.43,2.74-.86,4.11-1.29-.2,2.08-.4,4.17-.45,4.7l7.52,6.48c1.4,2.29,2.81,4.58,4.21,6.87,0,1.64,0,3.27,0,4.91Z"/><path class="f" d="M263.21,199.91c0,1.86-.01,3.72-.01,5.58-3.52,2.51-7.05,5.03-10.57,7.54-5.26-2.87-7.87-6.94-5.96-13.08,1.34-.51,2.67-1.01,4.01-1.52,4.18,.49,8.36,.98,12.54,1.47Z"/><path class="ab" d="M295.34,256.17c.23-.54,.77-1.19,.63-1.62-3.74-12.07-2.23-14.12,10.49-14.23,.92,0,1.83-.06,2.75-.1,1.38,.6,2.76,1.21,4.14,1.81-.02,.3-.02,.59-.01,.89l-.08,.06c-10.47,1.41-11.94,2.73-12.81,11.56l-4.91,3.76c-.07-.71-.14-1.43-.21-2.14Z"/><path class="o" d="M295.34,256.17c.07,.71,.14,1.43,.21,2.15-.48,.86-.97,1.72-1.45,2.58-2.32,1.07-4.64,2.14-6.95,3.22-.53,1.39-1.06,2.79-1.59,4.18l-1.18,2.79c-.05,.92-.1,1.85-.16,2.77-1.39,.02-2.77,.04-4.16,.06-.11-.92-.21-1.84-.32-2.76-.02-1.05-.05-2.1-.07-3.15v-9.47c5.41-.82,10.54-1.59,15.68-2.37Z"/><path class="aa" d="M265.99,160.06c-.64,1.91-.99,3.99-1.98,5.7-3.93,6.8-8.06,13.48-12.12,20.21-3.4-10.56-1.86-15.18,6.84-20.87,2.47-1.61,4.84-3.36,7.26-5.04Z"/><path class="y" d="M281.4,218.73c0-1.64,0-3.27,0-4.91,3.69,2.88,7.38,5.76,11.07,8.65l7.09,10.99c-8.11-2.37-13.82-7.7-18.16-14.72Z"/><path class="x" d="M299.57,233.45c-2.36-3.66-4.72-7.32-7.09-10.99,2.76,1.01,5.58,1.88,8.26,3.07,2.44,1.09,4.73,2.54,7.09,3.84,.46,.73,.92,1.46,1.38,2.18-1.74,1.05-3.47,2.1-5.21,3.15-1.11-.33-2.21-.65-3.32-.98-.38-.04-.75-.13-1.11-.28Z"/><path class="n" d="M304,234.7c1.74-1.05,3.47-2.1,5.21-3.14,.46,.07,.92,.14,1.39,.2l1.52,.31h.02l2.84,1.6c-.03,.39-.04,.77-.02,1.16,2.05,1.97,4.1,3.94,6.16,5.9-1.59,1.75-3.18,3.5-4.77,5.25-.94,.17-1.89,.34-2.83,.5-.08-1.16-.16-2.33-.23-3.49l.08-.06c.57-.06,1.14-.12,1.7-.19-.56-.24-1.13-.47-1.69-.71-1.38-.6-2.76-1.21-4.14-1.81-1.8-1.39-3.59-2.77-5.39-4.16,0-.46,.05-.92,.16-1.37Z"/><path class="aa" d="M252.63,213.04c3.52-2.51,7.05-5.03,10.57-7.54,2.03,1.44,4.06,2.87,6.84,4.84-4.59,2.41-7.84,4.11-11.1,5.82-2.1-1.04-4.21-2.08-6.31-3.12Z"/><path class="b" d="M250.67,198.44l-4.01,1.52c.87-4.06,1.66-8.15,2.67-12.18,.23-.93,1.24-1.67,1.87-2.51,.74,1.18,1.5,2.36,2.25,3.54-.93,3.21-1.86,6.42-2.78,9.62Z"/><path class="k" d="M279.67,268.01c.02,1.05,.05,2.1,.07,3.15-.02-1.05-.05-2.1-.07-3.15Z"/><path class="y" d="M304,234.7c-.11,.45-.17,.91-.16,1.37-1.05-.78-2.1-1.57-3.15-2.35,1.1,.33,2.21,.65,3.32,.98Z"/><path class="q" d="M221.14,386.96c5.65-2.63,11.29-5.26,17.44-8.13,.63-2.16,1.55-5.31,2.47-8.47,1.36,1.35,2.79,2.63,4.08,4.05,1.79,1.97,.73,6.73,5.6,5.68,1.38,1.01,2.75,2.03,4.13,3.04,.49,1.29,.98,2.58,1.47,3.87-1.38,.04-2.75,.07-4.13,.11-3.31-.46-6.61-.93-9.92-1.39-4.67,.98-9.33,1.95-14,2.93-2.39-.56-4.77-1.13-7.16-1.69Z"/><path class="v" d="M221.14,386.96c2.39,.56,4.77,1.13,7.16,1.69-4.9,2.49-9.8,4.98-14.69,7.47-.24-.23-.48-.46-.72-.69,2.75-2.82,5.5-5.65,8.25-8.47Z"/><path class="v" d="M250.74,380.09c-4.87,1.05-3.81-3.71-5.6-5.68-1.29-1.42-2.71-2.7-4.08-4.05,.72-1.55,1.44-3.11,2.17-4.66,1.58,1.49,3.15,2.99,4.73,4.48,.91,.99,1.82,1.97,2.73,2.96,.06,1.86,.12,3.71,.18,5.57-.09,.46-.13,.92-.11,1.38Z"/><path class="q" d="M247.95,370.18c-1.58-1.49-3.15-2.99-4.73-4.48,1.5-2.7,3-5.4,4.5-8.1,.52,1.48,1.04,2.97,1.56,4.45-.44,2.71-.89,5.42-1.33,8.13Z"/><path class="t" d="M249.28,362.05c-.52-1.48-1.04-2.97-1.56-4.45,.86-2.39,1.71-4.78,2.57-7.16,1,.61,2.01,1.22,3.01,1.83-.03,1.72-.06,3.43-.09,5.15-.95,.53-1.89,1.06-2.84,1.59-.36,1.01-.72,2.03-1.08,3.04Z"/><path class="p" d="M253.29,352.26c-1-.61-2.01-1.22-3.01-1.83,1.05-2.01,2.1-4.03,3.15-6.04-.05,2.62-.09,5.24-.14,7.87Z"/><path class="d" d="M213.61,396.12c4.9-2.49,9.8-4.98,14.69-7.47,4.67-.98,9.33-1.95,14-2.93l-.28,4.96,.02,.44c-3.12,.55-6.25,1.11-9.38,1.66-2.12,.58-4.25,1.17-6.37,1.75l1.24,1.42c-2,2.7-4.01,5.4-6.01,8.1-.22,1.51-.44,3.02-.66,4.49l-6.87-1.63-1.09-1.5,.71-9.27Z"/><path class="j" d="M264.69,386.91c3.59,1.11,7.6,1.55,10.68,3.47,5.92,3.7,5.56,5.8-.65,9.21-3.86,.51-7.71,1.03-11.57,1.54-.91-1.61-1.81-3.23-2.72-4.84-2.29-2.13-4.57-4.26-6.86-6.4,3.71-1,7.41-1.99,11.12-2.99Z"/><path class="x" d="M238.1,426.17c8.94-5.54,17.88-11.07,26.82-16.61l2.48,1.02c.03,.57,.07,1.14,.1,1.71-8.5,6.95-15.17,16.88-27.8,17.14-.53-1.09-1.07-2.18-1.6-3.26Z"/><path class="j" d="M246.46,403.91c1.78,.61,3.72,.98,5.23,1.99,.42,.28-.04,2.7-.73,3.7-3.83,5.57-18.7,8.33-25.45,4.88,.05-1.03,.1-2.06,.15-3.09,1.34-.2,2.69-.41,4.03-.61,7.25,1.77,13.82,1.87,16.77-6.87Z"/><path class="p" d="M214.38,459.81c-.02-3.24-.05-6.47-.07-9.7,.46-2.89,.92-5.77,1.39-8.66,.21-.42,.42-.84,.63-1.26,.24-1.42,.48-2.84,.72-4.26,1.91-1.77,3.83-3.55,5.74-5.32,.05,.49,.09,.98,.14,1.47-.18,4.17-.37,8.35-.55,12.52,.48,2.28,.95,4.57,1.43,6.85-3.74,1.34-9.03,1.39-6.57,7.89-.95,.16-1.9,.31-2.85,.47Z"/><path class="b" d="M246.46,403.91c-2.95,8.74-9.51,8.64-16.77,6.87,1.1-2.91,6.63-3.5,4.3-8.2l1.37-1.45-.03,.04c2.31,.89,4.62,1.77,6.93,2.66h3.1c.38-.05,.74-.01,1.1,.1Z"/><path class="k" d="M253.57,389.9c2.29,2.13,4.57,4.26,6.86,6.4-2.72,.74-5.43,1.48-8.15,2.22-1.97-.47-3.94-.95-5.91-1.42-.42-.09-.84-.17-1.26-.24,1.73-1.3,3.45-2.59,4.69-3.52-2.36-.68-5.06-1.45-7.76-2.23,0,0-.01-.44-.01-.43,2.89-.74,5.77-1.49,8.66-2.24l2.89,1.46Z"/><path class="x" d="M263.15,401.13c3.86-.51,7.71-1.03,11.57-1.54,4.82,.5,3.59,2.52,1.2,4.82-1.74,.33-3.47,.66-5.21,.99l-6.11-.11c-.49-1.39-.97-2.77-1.46-4.16Z"/><path class="h" d="M222.92,432.07l-.14-1.47c5.11-1.48,10.21-2.96,15.32-4.43,.53,1.09,1.07,2.18,1.6,3.26-1.92,.77-3.83,1.54-5.75,2.31l-11.04,.33Z"/><path class="b" d="M225.67,411.39c-.05,1.03-.1,2.06-.15,3.09-3.84-2.53-7.69-5.06-11.53-7.58l6.87,1.63c.21-1.46,.44-2.98,.66-4.49,6.9-.67,1.72,5.49,4.16,7.35Z"/><path class="aa" d="M245.11,396.86c.42,.06,.84,.14,1.26,.23,.03,1.75,.06,3.49,.09,5.24-.37,.49-.73,.98-1.1,1.47-1.03,0-2.07,0-3.1,.01-.92-1.39-1.84-2.78-2.76-4.18,0-.8,0-1.6,0-2.39,1.87-.13,3.74-.26,5.6-.38Z"/><path class="v" d="M246.46,402.33c-.03-1.75-.06-3.49-.09-5.24,1.97,.47,3.94,.95,5.91,1.42-1.94,1.27-3.88,2.55-5.82,3.82Z"/><path class="j" d="M264.61,405.3c2.04,.04,4.07,.07,6.1,.1-1.11,1.73-2.21,3.46-3.31,5.19l-2.48-1.02c-.1-1.42-.21-2.85-.32-4.27Z"/><path class="t" d="M217.04,435.92c-.24,1.42-.48,2.84-.72,4.26,.24-1.42,.48-2.84,.72-4.26Z"/><path class="g" d="M397.4,156.72c5.81,4.2,1.86,8.81,.55,13.31-2.12,1.45-4.24,2.91-6.36,4.36l-2.45,1.85c-1.43,1-2.86,1.99-4.29,2.98-.96-.76-1.81-1.78-2.9-2.23-1.33-.55-2.86-.63-4.3-.92-1.4,1.09-2.8,2.19-4.2,3.28-.37-.18-.75-.21-1.15-.09-2.13-.3-4.26-.6-6.39-.89-1.8-4.44-3.61-8.89-5.41-13.33,2.02-1.35,4.3-2.45,6-4.13,2.17-2.13,3.87-4.74,5.78-7.14,.1,.44,.1,.88,.02,1.32,.3,2.87-4.44,6.59,1.45,8.51-.5,1.56-1,3.13-1.94,6.04,7.73-3.03,13.23-6.17,15.84-12.9,2.29-2.86,4.59-5.72,6.88-8.58,.49-.24,.98-.49,1.47-.73,.89,.84,1.77,1.68,2.66,2.52-.45,1.72-.9,3.44-1.34,5.15-5.08,4.17-10.78,7.88-11.63,15.22,6.54-2.37,10.17-7.11,11.73-13.6Zm-26.12,13.79c-.61,.48-1.22,.96-1.84,1.45,.8,.85,1.56,1.74,2.45,2.49,.09,.08,1.39-.98,1.33-1.08-.56-1-1.27-1.91-1.95-2.85Z"/><path class="b" d="M398.64,149.94c-.89-.84-1.77-1.68-2.66-2.52,1.92-2.5,3.84-5.01,5.76-7.51,.13-.53,.27-1.06,.4-1.6,1.71-.78,3.42-1.57,5.12-2.35,1.05,.86,2.13,1.69,3.14,2.6,1.23,1.12,2.4,2.3,3.59,3.46-1.27,1.15-2.53,2.3-3.8,3.46-1.89-5.13-4.74-3.03-7.26-.76-1.66,1.49-2.88,3.47-4.29,5.23Z"/><path class="x" d="M397.4,156.72c-1.56,6.49-5.19,11.23-11.73,13.6,.85-7.34,6.55-11.05,11.63-15.22,.03,.54,.07,1.08,.1,1.62Z"/><path class="q" d="M384.84,179.22c1.43-1,2.86-1.99,4.29-2.99,.81-.62,1.63-1.24,2.45-1.85,2.12-1.45,4.24-2.91,6.36-4.36,.31,2.56,.62,5.13,.94,7.69-.96,.49-1.93,.98-2.89,1.48-.92,.41-1.85,.82-2.77,1.24-1.41-.07-2.81-.15-4.22-.22l-3.87,3.6c-.1-1.53-.19-3.05-.29-4.58Z"/><path class="y" d="M386.19,191.63c-.42,.42-.84,.84-1.26,1.26-1.07,0-2.14,0-3.21,.01,1.31-1.48,2.61-2.96,3.93-4.44,1.6-1.28,3.19-2.55,4.79-3.83,.13-.23,.2-.47,.21-.73,.86-.19,1.72-.39,2.58-.58,.9,.58,1.79,1.16,2.07,1.34-1.21,1.85-2.41,3.66-3.6,5.48-1.34-.02-2.68-.04-4.02-.06-.5,.51-1,1.02-1.49,1.54Z"/><path class="o" d="M393.23,183.33c-.86,.19-1.72,.39-2.58,.58-.09-.7-.17-1.41-.25-2.11,.94-.46,1.88-.91,2.82-1.37,.92-.41,1.85-.82,2.77-1.24,.95-.16,1.89-.33,2.84-.49-.22,1.01-.11,2.57-.71,2.93-1.45,.86-3.23,1.17-4.88,1.69Z"/><path class="y" d="M398.83,178.71c-.95,.16-1.89,.33-2.84,.49,.96-.49,1.93-.99,2.89-1.48-.02,.33-.04,.66-.05,.99Z"/><path class="e" d="M295.47,441.58c-1.62,3.99-3.74,5.74-7.16,1.58,.02-.78,.04-1.55,.06-2.33,.43-1.12,.87-2.24,1.3-3.36-.42-1.41-.85-2.83-1.27-4.24v-4.19c0-.94,.01-1.88,.02-2.82l.41-.32c1.66,.63,3.31,1.26,4.97,1.89,.2,1.26,.41,2.51,.61,3.77,.35,3.34,.71,6.68,1.06,10.02Z"/><path class="j" d="M295.47,441.58c-.36-3.34-.71-6.68-1.06-10.02,.79,.08,1.58,.17,2.37,.25-.44,3.26-.87,6.51-1.31,9.77Z"/><path class="h" d="M267.4,410.59c1.1-1.73,2.2-3.46,3.31-5.19,1.74-.33,3.48-.66,5.21-.99-.02,.27-.04,.54-.06,.81,0,.49,.02,.98,.02,1.47,.41,2.88,.82,5.76,1.23,8.64,.51,5.04,1.01,10.09,1.51,15.13-2.29-1.15-4.58-2.29-7.32-3.67,0,1.32-.06,2.15,0,2.98,.56,7.22,1.14,14.43,1.72,21.65h-.01c-.44-.97-.87-1.94-1.31-2.9,.01-.46-.02-.92-.11-1.37-2.82-3.77-5.63-7.55-8.45-11.32-.8-.76-1.6-1.52-3.27-3.1,9.23-.18,4.83-7.34,6.93-11.12,1.91,.52,3.67,1,6.6,1.8-1.82-4.68,1.32-10.38-5.9-11.12l-.1-1.71Z"/><path class="e" d="M281.56,387c6.05,1.35,6.63,6.29,6.81,11.07,.36,9.27,.33,18.55,.46,27.83l-.41,.31c-.75-.04-1.5-.09-2.26-.13-1.07-2.27-2.14-4.55-3.2-6.82,2.02-10.86,2.65-21.66-1.41-32.26Z"/><path class="q" d="M278.62,430.46c-.5-5.05-1.01-10.09-1.51-15.13,.47,1.8,.94,3.61,1.41,5.41,.47,.29,.94,.58,1.41,.87h.03c.86,2.54,1.72,5.06,2.58,7.59,.1,.88,.21,1.76,.31,2.64-.95,0-1.9,0-2.85,0-.47-.47-.94-.94-1.41-1.41l.03,.05Z"/><path class="aa" d="M282.54,429.19c-.86-2.52-1.72-5.05-2.58-7.57,.27-.7,.54-1.39,.81-2.09,.73-.09,1.47-.18,2.2-.27,1.07,2.27,2.14,4.55,3.2,6.82-.62,.98-1.24,1.96-1.86,2.94-.59,.06-1.18,.12-1.76,.17Z"/><path class="p" d="M253.57,389.9c-.96-.49-1.93-.97-2.89-1.45,.51-.44,1.02-.89,1.54-1.33,1.38-.04,2.75-.07,4.13-.11,1.82-.87,3.64-1.73,5.46-2.6,.92,.18,1.84,.35,2.76,.53,.04,.66,.08,1.32,.12,1.98-3.71,.99-7.41,1.99-11.12,2.99Z"/><path class="f" d="M279.93,421.61c-.47-.29-.94-.58-1.41-.87,.78-.41,1.55-.81,2.33-1.22-.31,.69-.61,1.39-.92,2.08Z"/><path class="e" d="M279.93,421.61c.31-.69,.61-1.39,.92-2.08h-.08c-.27,.71-.54,1.4-.81,2.1h-.03Z"/><path class="x" d="M275.88,406.69c0-.49-.02-.98-.02-1.47,0,.49,.02,.98,.02,1.47Z"/><path class="w" d="M289.57,304.83c2.32-1.36,4.63-2.72,6.95-4.08-1.07,1.15-2.14,2.29-3.37,3.61,7.17,8.02,8.74,16.89,3.48,26.61-.87-2.42-1.5-4.96-2.65-7.23-1.91-3.78-4.15-7.38-6.24-11.07-.36-.11-.6,.02-.7,.39,.3-.79,.61-1.58,.9-2.38,.51-1.09,1.02-2.17,1.54-3.25,.04-.87,.07-1.74,.11-2.6Z"/><path class="v" d="M284.22,273.86c.05-.92,.1-1.85,.15-2.77,.88,.02,1.75,.04,2.63,.06l.06,.07-.04,2.73c.48,.93,.96,1.86,1.44,2.79-.03,.93-.06,1.86-.09,2.78-.35,.51-.7,1.01-1.03,1.54,0,.01,.34,.24,.52,.37,.19-.61,.38-1.23,.58-1.84,3.52,2.01,7.05,3.98,11.14,1.36,.02,1.39,.05,2.78,.07,4.16-2.36,1.87-4.72,3.74-7.09,5.61-6.82-3.61-9.82-9.12-8.35-16.84Z"/><path class="l" d="M292.48,292.1c-.18-.32-.39-.62-.5-.96-.03-.08,.29-.27,.44-.4,.1,.45,.12,.91,.06,1.36Z"/><path class="b" d="M512.1,1.75c-.76,.94-1.34,2.37-2.31,2.73-1.97,.73-4.15,.88-6.24,1.27-7.23,.94-14.58,1.44-20.96,5.55-2.25-1.49-4.5-2.98-6.76-4.47-1.06-1.71-2.13-3.41-3.19-5.12,13.16,.01,26.31,.03,39.47,.04Z"/><path class="j" d="M472.63,1.71c1.06,1.71,2.13,3.41,3.19,5.12-.27,8.04-.57,16.08-.77,24.13-.03,1.36,.36,2.72,.55,4.09l.04-.04c-1.47,5.18-2.95,10.36-4.42,15.54-1.3-.09-2.59-.18-3.89-.28-.15-.52-.3-1.04-.45-1.56-.2-1.26-.4-2.52-.6-3.79,8.22-2.59-1.63-6.08,1.2-8.77,1.67-3.13,4.18-6.44,4.18-9.74,0-8.42-1.12-16.85-1.79-25.27l2.77,.56Z"/><path class="e" d="M469.86,1.15c.67,8.42,1.79,16.85,1.79,25.27,0,3.31-2.51,6.61-4.18,9.74-2.82,2.7,7.02,6.18-1.19,8.77-.91-2.22-1.78-4.46-2.78-6.65-.51-1.12-1.24-2.15-1.86-3.22l4.89-6.04,2.14,.74c-.95-3.37-1.9-6.74-2.85-10.11,0-5.12-.01-10.24-.02-15.35,.95-1.07,1.91-2.15,2.86-3.22,.41-.22,.81-.2,1.2,.07Z"/><path class="p" d="M468.67,1.08c-.95,1.07-1.91,2.15-2.86,3.22-.37-1.17-.75-2.35-1.12-3.52,1.33,.1,2.65,.2,3.98,.3Z"/><path class="a`" d="M457.58,1.52l-.79,3.68-1.16,.13c-.33-1.27-.66-2.54-.99-3.81,.98,0,1.96,0,2.94,0Z"/><path class="j" d="M477.01,36.44c.34,.49,.69,.97,1.03,1.46-.34-.49-.67-.99-1.01-1.48l-.02,.02Z"/><path class="j" d="M475.6,35.05c.47,.46,.94,.93,1.41,1.39l.02-.02c-.46-.47-.93-.94-1.39-1.41l-.04,.04Z"/><path class="q" d="M358.18,219.55l-.41,.12-.43-.02c-2.71-2.89-4.58-1.86-6.02,1.26h0c-.96-.05-1.92-.09-2.88-.13-1.07,.52-2.15,1.03-3.22,1.55-.79,1.51-1.58,3.02-2.37,4.53-.65-.11-1.3-.23-1.95-.35-1.28-.12-2.56-.25-3.84-.37,.12-.43,.19-.86,.22-1.31,1.88-1.78,3.77-3.56,5.65-5.34,4.49-1.81,9.94-2.81,8.38-9.8h0c2.34-1.39,4.67-2.78,7.01-4.17,.41-.07,.83-.13,1.25-.18,2.92-.92,5.84-1.83,8.76-2.75,.87,.97,1.75,1.94,2.62,2.91-1.59,1.7-3.2,3.38-4.76,5.11-2.68,2.97-5.33,5.96-7.99,8.95Z"/><path class="k" d="M385.64,188.47c-1.31,1.48-2.61,2.96-3.92,4.44-.38,.42-.77,.84-1.15,1.26-.89,.59-1.79,1.19-2.68,1.78-1.81-.05-3.62-.09-5.43-.13,2.69-4.65,5.39-9.3,8.08-13.95-.97-1.93-1.94-3.86-2.91-5.79,1.44,.28,2.97,.37,4.3,.92,1.09,.45,1.94,1.47,2.9,2.23,.1,1.53,.19,3.05,.29,4.58,.46,.9,.92,1.81,1.38,2.72-.29,.65-.58,1.3-.86,1.95Z"/><path class="n" d="M372.47,195.82c1.81,.04,3.62,.09,5.43,.13-2.32,3.19-4.65,6.37-6.97,9.56-.87-.97-1.74-1.94-2.62-2.9,.4-1.35,.8-2.7,1.2-4.04,.99-.91,1.97-1.82,2.96-2.74Z"/><path class="n" d="M380.57,194.16c.38-.42,.77-.84,1.15-1.26,1.07,0,2.13,0,3.2-.01-1.45,.42-2.9,.85-4.35,1.27Z"/><path class="n" d="M386.19,191.63c.5-.51,.99-1.02,1.49-1.54-.5,.51-.99,1.02-1.49,1.54Z"/><path class="m" d="M240.95,479.32c-5.96-.69-1.26,4.42-3.21,5.91-3.28-1.36-6.57-2.72-10.31-4.27v13.7c-.33,.03-.66,.06-.99,.08-.84-1.94-1.67-3.88-3.01-6.97-.52,3.39-.84,5.5-1.17,7.62l-1.22,.23c-.38-1.24-.75-2.47-1.13-3.71,.41-5.13,.81-10.25,1.22-15.38,.99-.57,2.7-1.01,2.84-1.75,.41-2.16,.21-4.45,.24-6.68,.88,0,1.76-.01,2.65-.02,1.51,2.93,3.01,5.87,4.52,8.8,.46-.19,.93-.38,1.39-.57-1.01-5.04-2.03-10.09-3.04-15.13,.91,.06,1.81,.12,2.72,.18,.41,2.23,.83,4.46,1.24,6.69l2.28-.04c.49-3.97,.98-7.94,1.67-13.47,2.82,7.48,5.05,13.4,7.28,19.33-1-7.63-.28-21.67,3.73-26.33v21.69c1.86-1.23,3.88-2.56,5.91-3.9-.4,4.19-.81,8.37-1.36,14.1-2.76-.6-5.3-1.43-7.88-1.59-1.41-.09-2.89,.96-4.34,1.49Z"/><path class="n" d="M415.58,79.76c-.95-4.76-2.62-9.51-2.73-14.29-.36-15.33-.12-30.67-.16-46.01,0-2.98-.06-5.82,4.21-5.36,1.85,4.23,3.69,8.46,5.54,12.7-.15,.9-.31,1.8-.46,2.69-1.21,1.66-3.06,3.18-3.48,5.02-.6,2.64-.42,5.55-.11,8.29,.7,6.38-3.1,14.46,6.37,17.75,.3,.1,.4,.8,.59,1.22,.54,2.28,1.08,4.57,1.62,6.85-.08,.91-.16,1.83-.24,2.74-3.26,2.79-6.52,5.57-9.78,8.36l-.1,.1c-.43-.05-.85-.07-1.28-.07Z"/><path class="k" d="M430.87,50.56c3.58-8.22,6.74-16.35,5.94-25.81-.34-3.99,2.5-8.25,3.9-12.39,1.4,.49,2.79,.99,4.19,1.49,.44,3.77,.87,7.53,1.31,11.3-1.81,2.13-4.61,4.03-5.2,6.46-.9,3.74-.29,7.85-.31,11.81-.26,2.3-.55,4.59-.78,6.89-.24,2.36-.42,4.73-.63,7.09-.19,4.28-.62,8.71,5.76,8.58,0,.36-.02,.73-.04,1.09,1.38,3.28,2.76,6.55,4.14,9.83-1.86,.96-3.72,1.92-5.58,2.87-.06-.91-.11-1.82-.17-2.73,.88-6.32-.77-8.18-6.29-7.27-1.56,.26-3.2,.08-4.8,.11-.48-6.43-.96-12.87-1.43-19.31Z"/><path class="y" d="M443.39,77.03c.06,.91,.11,1.82,.17,2.73-.87,.23-1.77,.38-2.6,.7-8.48,3.28-9.6,2.56-10.12-6.52,4.35,.38,9.49-2.5,12.55,3.09Z"/><path class="p" d="M443.39,77.03c-3.06-5.59-8.21-2.71-12.55-3.09-1.37-.86-2.74-1.72-4.11-2.57,.08-.91,.16-1.83,.24-2.74,1.78,.41,3.56,.83,5.34,1.24,1.6-.02,3.24,.15,4.8-.11,5.51-.92,7.17,.94,6.29,7.27Z"/><path class="v" d="M433.54,87.99c-1.34,.51-2.69,1.01-4.03,1.52-3.24-1.83-6.47-3.66-9.71-5.5l-.25-.47c1.38-1.27,2.76-2.55,3.85-3.54,3.34,2.19,6.84,4.48,10.35,6.77l-.07-.06c-.05,.43-.1,.86-.13,1.29Z"/><path class="n" d="M416.96,79.73c.86,1.27,1.73,2.54,2.59,3.81l.25,.47c-.67-.12-1.33-.25-1.99-.37-.31-1.27-.63-2.54-.94-3.82l.1-.1Z"/><path class="v" d="M433.74,86.77l.52-.66c-.03,.12-.02,.28-.1,.35-.14,.11-.32,.17-.49,.25l.07,.06Z"/><path class="t" d="M313.5,246.48c.94-.17,1.89-.34,2.83-.5,0,.48,0,.96,.01,1.44,.02,.93,.03,1.86,.05,2.79-.89,.93-1.78,1.87-2.67,2.8-1.53,2.22-3.05,4.43-4.58,6.65l.11,.22c-.63,0-1.26,.01-1.89,.02-.39-.15-.78-.28-1.17-.4,.12-2.21,.23-4.43,.35-6.65,2.32-2.12,4.63-4.25,6.95-6.37Z"/><path class="n" d="M337.04,226.15c1.28,.12,2.56,.25,3.84,.37-4.89,3.28-9.78,6.57-14.68,9.85-.55-.58-1.11-1.16-1.66-1.74-.37-1.27-.74-2.54-1.11-3.8,.11-.37,.16-.74,.17-1.13,1.78-.21,3.56-.42,5.34-.63l1.34-.25c2.25-.89,4.51-1.77,6.76-2.66Z"/><path class="y" d="M324.55,234.62c.55,.58,1.11,1.16,1.66,1.75-1.7,1.45-3.4,2.9-5.1,4.36-2.05-1.97-4.1-3.94-6.16-5.9,3.2-.07,6.4-.13,9.6-.2Z"/><path class="aa" d="M224.22,468.1c-.04,2.24,.17,4.52-.24,6.68-.14,.74-1.85,1.17-2.84,1.75-2.25-4.67-4.5-9.35-6.75-14.02,0-.9,0-1.8,0-2.7,.95-.16,1.9-.31,2.85-.47,2.33,2.92,4.66,5.84,6.99,8.75Z"/><path class="o" d="M254.54,465.32c-2.02,1.34-4.05,2.67-5.91,3.9v-21.69c-4.01,4.66-4.73,18.69-3.73,26.33-2.23-5.92-4.46-11.85-7.28-19.33-.68,5.53-1.18,9.5-1.67,13.47l-2.28,.04c-.41-2.23-.83-4.46-1.24-6.69,.5-9.87,1.01-19.74,1.51-29.61,1.92-.77,3.83-1.54,5.75-2.31,12.63-.25,19.3-10.18,27.8-17.13,7.22,.75,4.08,6.44,5.9,11.13-2.93-.8-4.69-1.28-6.6-1.8-2.1,3.77,2.29,10.94-6.93,11.12,1.67,1.58,2.47,2.34,3.27,3.1,.48,2.84,.96,5.68,1.43,8.52l-2.52-.32c-.52-.14-1.03-.28-1.55-.42-.22-1.44-.44-2.88-.6-3.95-2.77,.84-5.05,1.54-8.11,2.47,.54,2.34,1.18,5.12,1.82,7.9,.38,4.15,.75,8.31,1.13,12.46l-.2,2.81Z"/><path class="m" d="M253.61,450.05c-.64-2.78-1.28-5.56-1.82-7.9,3.06-.93,5.34-1.63,8.11-2.47,.16,1.07,.38,2.51,.6,3.95,.02,.74,.04,1.48,.06,2.22-.04,5.56-.08,11.12-.13,16.68-.92,0-1.84,0-2.75,.01-1.36-4.16-2.71-8.33-4.07-12.49Z"/><path class="e" d="M253.61,450.05c1.36,4.16,2.71,8.33,4.07,12.49-.98-.01-1.96-.02-2.94-.03-.38-4.15-.75-8.31-1.13-12.46Z"/><path class="x" d="M404.36,102.09c1.43,.53,2.86,1.06,4.28,1.6,.14,1.91,.13,3.84,.53,5.69,.11,.5,1.46,.74,2.24,1.09,.44,0,.89,0,1.33,0-3.62,5.99-9.06,9.77-15.3,12.57-1.24-.04-2.48-.08-3.71-.12,.81-1.3,1.62-2.6,2.43-3.89,4.37-.24,8.61-.59,5.57-6.85-.03-.55-.07-1.11-.1-1.66l.1,.05c5.4-1.42,3-5.27,2.63-8.48Z"/><path class="ab" d="M417.8,83.64c.67,.12,1.33,.25,2,.37,3.24,1.83,6.47,3.66,9.71,5.5-2.2,2.23-4.41,4.47-6.61,6.7-.54-5.15-4.5-3.61-7.54-3.86,.22-1.39,.44-2.78,.66-4.17l2.2-3.1-.42-1.44Z"/><path class="v" d="M415.36,92.34c3.04,.26,7-1.28,7.54,3.86-1.08,.99-2.15,1.97-3.23,2.95-.89,.11-1.78,.21-2.66,.32l.04-.07c-.5-.03-1-.07-1.5-.1h0c-.19-2.01-.37-4.03-.56-6.04-.04-.37,.08-.68,.37-.92Z"/><path class="v" d="M408.56,100.89c.51-1.33,1.03-2.66,1.54-3.99,.77-.18,1.55-.35,2.32-.53,1.04,.98,2.08,1.95,3.13,2.93h0c.02,.45,.01,.9-.01,1.35-1.37,.38-2.74,.77-4.11,1.15-.96-.31-1.91-.61-2.87-.92Z"/><path class="x" d="M408.56,100.89c.96,.31,1.91,.61,2.87,.92-.9,.59-1.79,1.18-2.69,1.77-.06-.9-.12-1.79-.18-2.69Z"/><path class="ab" d="M417,99.48c.89-.1,1.78-.21,2.66-.32-.89,.1-1.78,.21-2.66,.32Z"/><path class="ab" d="M415.53,100.65c.02-.45,.03-.9,.01-1.35,.5,.03,1,.07,1.5,.1-.5,.42-1.01,.83-1.51,1.25Z"/><path class="p" d="M313.74,253.01c.89-.93,1.78-1.87,2.67-2.8,.57,.63,1.13,1.27,1.7,1.9-1.46,.3-2.91,.6-4.37,.9Z"/><path class="y" d="M407.26,135.97c-1.71,.78-3.42,1.57-5.13,2.34,.24-1.83,.48-3.65,.72-5.47,2.8-.95,5.59-1.9,8.39-2.85-1.32,1.99-2.65,3.99-3.97,5.98Z"/><path class="w" d="M351.31,220.92c1.44-3.12,3.32-4.15,6.02-1.26-2.01,.42-4.01,.84-6.02,1.26Z"/><path class="n" d="M345.22,222.34c1.07-.52,2.15-1.03,3.22-1.54,.06,.71,.12,1.41,.18,2.12l-3.4-.57Z"/><path class="w" d="M348.62,222.91c-.06-.71-.12-1.41-.18-2.12,.96,.04,1.92,.08,2.88,.12l-2.7,2Z"/><path class="q" d="M250.86,378.71c-.06-1.86-.12-3.71-.18-5.57,.04-.48,.08-.96,.13-1.45,.87-.59,1.74-1.17,2.6-1.76,.06-1.75,.12-3.51,.17-5.26,1.02-2.42,2.04-4.84,3.06-7.25,1.88,4.82,3.75,9.64,5.63,14.46-2.32,.88-4.63,1.76-6.95,2.65-1.49,1.39-2.97,2.78-4.46,4.17Z"/><path class="j" d="M261.8,384.4c-1.82,.87-3.64,1.74-5.46,2.6-.49-1.29-.98-2.58-1.47-3.87,.22-.75,.43-1.51,.65-2.26,2.09,1.18,4.19,2.35,6.28,3.53Z"/><path class="y" d="M255.52,380.87c-.22,.75-.43,1.51-.65,2.26-1.38-1.01-2.75-2.03-4.13-3.04-.01-.47,.03-.93,.12-1.38,1.49-1.39,2.97-2.78,4.46-4.17,.07,2.11,.14,4.23,.21,6.34Z"/><path class="b" d="M264.67,377.32l-.59-.31c.19,.11,.38,.23,.57,.34l.03-.03Z"/><path class="p" d="M264.96,360.87c-.44,.48-.87,.97-1.31,1.45,.44-.48,.87-.97,1.31-1.45Z"/><path class="j" d="M273.02,451.42c-.57-7.22-1.16-14.43-1.72-21.65-.06-.82,0-1.66,0-2.98,2.74,1.37,5.03,2.52,7.32,3.67l-.03-.05c.09,.85,.17,1.7,.26,2.55l1.16,4.4c-2.15,4.27-3.47,8.3,2.9,10.12l-.13,.39c.1,1.57,.19,3.14,.29,4.71-1.15-1.01-2.3-2.02-3.93-3.46-.63,3.4-1.2,6.49-2.01,10.9-1.79-3.76-2.95-6.19-4.1-8.62Z"/><path class="k" d="M280.01,437.37c-.39-1.47-.78-2.93-1.17-4.4,.38-.38,.77-.76,1.16-1.14,.95,0,1.9,0,2.85,0,.87,1.91,1.75,3.82,2.62,5.73l.04-.07c.95,1.11,1.91,2.23,2.86,3.34-.02,.78-.04,1.55-.06,2.33-1.78-.49-3.57-.99-5.35-1.48-.99-1.44-1.97-2.87-2.95-4.31Z"/><path class="aa" d="M280.01,437.37c.98,1.44,1.97,2.87,2.95,4.31-.02,1.94-.04,3.87-.05,5.82-6.37-1.82-5.05-5.85-2.9-10.12Z"/><path class="ab" d="M283.07,452.6c-.1-1.57-.19-3.14-.29-4.71,.96,.17,1.92,.34,2.87,.52,0,1.47,0,2.95,0,4.42-.49,.02-.99,.04-1.48,.07-.33-.26-.7-.35-1.11-.29Z"/><path class="j" d="M271.78,466.5c-.97-1.78-1.95-3.56-2.92-5.33,0-.47-.01-.94-.02-1.41l1.66-.04c.43,2.26,.85,4.52,1.28,6.78Z"/><path class="q" d="M270.5,459.72c-.55,.01-1.11,.03-1.66,.04,.02-2.81,.04-5.62,.06-8.42,.51,.52,1.03,1.05,1.54,1.57l.06,6.81Z"/><path class="j" d="M270.44,452.91c-.51-.52-1.03-1.05-1.54-1.57,.02-1.36,.04-2.72,.06-4.08,.43-.04,.86-.06,1.29-.07,.48,.45,.97,.89,1.45,1.34,.44,.96,.87,1.92,1.31,2.89-.86,.5-1.72,1-2.57,1.49Z"/><path class="n" d="M402.85,132.84c-.24,1.82-.48,3.64-.72,5.47-.13,.54-.26,1.07-.4,1.6-2.47-1.64-4.95-3.27-7.8-5.16,2.29-2.63,3.93-4.22,5.11-6.1,.24-.38-1.24-1.85-1.92-2.81,.11-.93,.22-1.86,.33-2.79,6.24-2.8,11.68-6.58,15.3-12.57,1.09,1.48,2.17,2.96,3.26,4.45-.14,.42-.33,.83-.57,1.21-4.2,5.57-8.4,11.14-12.59,16.71Z"/><path class="p" d="M288.38,279.51c.03-.93,.06-1.86,.09-2.78-.48-.93-.96-1.86-1.44-2.79,.01-.91,.03-1.82,.04-2.73,.91-.02,1.82-.05,2.72-.07,1.87,0,3.73,.01,5.6,.02,.07,.16,.12,.34,.22,.47,.07,.08,.23,.07,.35,.1-.19-.19-.38-.39-.57-.58,1.35-.91,2.7-1.81,4.05-2.72,.05,.86,.1,1.72,.15,2.58,0,3.31-.01,6.61-.02,9.92-4.09,2.62-7.62,.64-11.14-1.36l-.07-.06Z"/><path class="c" d="M415.46,120.05l-.02-.21,.02,.21Z"/><path class="q" d="M462.99,56.04c-1.82-.02-3.64-.04-5.47-.05-.5-.93-1-1.86-1.5-2.79-1.42-3.2-2.85-6.39-4.36-9.79,3.13-1.14,5.67-2.06,8.2-2.98,1.06,3.35,2.12,6.69,3.17,10.04,.04,1.36,.08,2.73,.11,4.09-.06,.46-.08,.92-.06,1.38l-.1,.1Z"/><path class="q" d="M465.85,55.97c-.06,1.81-.13,3.62-.2,5.43-1.52-.07-3.03-.14-4.93-.23,.89-2.02,1.58-3.57,2.27-5.13l.1-.1c.46,.01,.92-.02,1.38-.11,.46,.02,.92,.07,1.38,.14Z"/><path class="w" d="M456.03,53.2c.5,.93,1,1.86,1.5,2.79-.44,1.47-.87,2.95-1.31,4.42-1.06-.53-2.12-1.06-3.18-1.59-.03-1.34-.07-2.68-.11-4.02,1.03-.53,2.07-1.06,3.1-1.59Z"/><path class="j" d="M453.03,58.81c1.06,.53,2.12,1.06,3.18,1.59-.04,.85-.09,1.7-.13,2.55-.98-.02-1.96-.05-2.94-.07-.03-1.36-.07-2.72-.1-4.07Z"/><path class="j" d="M454.82,70.03c-2.03-.95-4.06-1.9-6.08-2.85,.05-.58,.09-1.15,.14-1.73,.95,.06,1.89,.11,2.83,.17,.58,.71,1.15,1.42,1.73,2.14,.46,.76,.92,1.52,1.39,2.28Z"/><path class="w" d="M453.43,67.75c-.58-.71-1.15-1.42-1.73-2.13,.48-.91,.95-1.82,1.43-2.73,.98,.02,1.96,.05,2.94,.07-.88,1.6-1.76,3.19-2.64,4.79Z"/><path class="j" d="M457.35,71.18c-.61-.39-1.22-.79-1.84-1.18,.61,.39,1.22,.79,1.84,1.18Z"/><path class="o" d="M287.93,310.69c-.3,.79-.61,1.58-.91,2.38-3.27,.93-6.55,1.86-9.82,2.8,.47-2.68,.95-5.37,1.42-8.05,1.84-.14,3.68-.29,5.52-.44,.88,.04,1.76,.07,2.63,.11,.39,1.07,.77,2.13,1.16,3.2Z"/><path class="k" d="M274.52,306.17l-.63,1.82c-.18-.13-.51-.35-.5-.37,.3-.54,.64-1.06,.97-1.59l.16,.14Z"/><path class="m" d="M295.39,271.16c-1.87,0-3.73-.01-5.6-.02-.88-2.34-1.76-4.68-2.64-7.02,2.32-1.07,4.64-2.14,6.95-3.22,1.33,1.53,2.66,3.05,3.99,4.58,.45,.98,.91,1.96,1.36,2.94-1.35,.91-2.7,1.81-4.05,2.72h-.01Z"/><path class="d" d="M298.09,265.48c-1.33-1.53-2.66-3.05-3.99-4.58,.48-.86,.97-1.72,1.45-2.58,1.64-1.26,3.28-2.51,4.92-3.76,2.03-.57,4.06-1.13,6.08-1.7-.12,2.22-.23,4.44-.35,6.65-2.71,1.99-5.41,3.98-8.11,5.98Z"/><path class="e" d="M307.38,259.91c.63,0,1.26-.01,1.89-.02-.47,.52-.94,1.03-1.41,1.55-.16-.51-.32-1.02-.48-1.53Z"/><path class="e" d="M268.96,447.26c-.02,1.36-.04,2.72-.06,4.08-.02,2.81-.04,5.62-.06,8.42,0,.47,.01,.94,.02,1.41-.93,0-1.85-.02-2.78-.03-.51-3.17-.81-6.39-1.6-9.48-.52-2.03-1.77-3.88-2.68-5.81,.09-.6,.18-1.2,.26-1.8,.84,.11,1.68,.21,2.52,.32,1.46,.96,2.92,1.93,4.38,2.89Z"/><path class="q" d="M262.05,444.05c-.09,.6-.17,1.2-.26,1.8h-1.22c-.02-.74-.04-1.48-.06-2.22,.52,.14,1.03,.28,1.55,.42Z"/><path class="h" d="M448.87,65.44c-.04,.58-.09,1.15-.13,1.73-1.25-.04-2.49-.08-3.74-.12,.03-.36,.04-.73,.04-1.09,.45-3.29,.91-6.58,1.37-9.87,.4-.06,.79-.14,1.18-.23l1.28,9.58Z"/><path class="m" d="M250.8,371.7c-.04,.48-.08,.96-.13,1.45-.91-.99-1.82-1.97-2.73-2.96,.44-2.71,.89-5.42,1.33-8.13,.36-1.01,.72-2.03,1.08-3.04,.98,.57,1.96,1.14,2.95,1.71,.09,1.32,.18,2.64,.27,3.96-.06,1.75-.12,3.51-.17,5.26-.87,.59-1.74,1.17-2.6,1.75Z"/><path class="q" d="M253.31,360.72c-.98-.57-1.96-1.14-2.95-1.71,.94-.53,1.89-1.06,2.84-1.59,.04,1.1,.07,2.2,.11,3.3Z"/><path class="e" d="M465.85,55.97c-.46-.07-.92-.11-1.38-.14-.44-.42-.88-.85-1.32-1.28-.04-1.36-.08-2.73-.11-4.09,1.28-.58,2.55-1.16,3.83-1.74,.15,.52,.3,1.04,.45,1.56-.49,1.9-.98,3.8-1.47,5.69Z"/><path class="q" d="M388.89,15.39c1.02-2.68,2.04-5.37,3.06-8.05,.12,5.15,.25,10.3,.37,15.44,1.2,8.75,2.41,17.5,3.62,26.25,.14,1.71,.28,3.41,.41,5.12l-3.16,10.36c-6.92-3.49-7.94-10.02-8.65-16.72,7.74-3.52,3.42-10.31,4.28-15.7v-12.97c-4.24,.01-8.58,.55-6.99-5.81,.14-.57-1.34-1.54-2.07-2.33-.08-.44-.28-.82-.61-1.13,2.29-2.97,4.59-5.95,6.88-8.92-.19,4.94-4.41,10.3,1.54,14.59,.44-.04,.88-.09,1.32-.13Z"/><path class="t" d="M379.14,9.84c.33,.31,.53,.69,.61,1.13,.33,4.72,.67,9.44,1.01,14.16-.5,1.9-1.01,3.79-1.51,5.69-.41,0-.82-.01-1.23-.04-.06-2.17,.26-4.44-.25-6.51-1.06-4.28-2.56-8.46-3.88-12.68-.04-.49-.08-.97-.11-1.45,1.79-.1,3.58-.2,5.37-.31Z"/><path class="o" d="M400.63,73.52c.27,3.75,.54,7.51,.81,11.26-3.73,1.53-7.45,3.06-11.18,4.6-1.33,.56-2.65,1.11-3.98,1.67-.96-.51-1.92-1.03-2.87-1.54,.03-1.35,.05-2.71,.08-4.06,.44-.88,.88-1.75,1.32-2.63,2.82-1.98,5.64-3.97,8.46-5.95,2.45-1.12,4.91-2.23,7.36-3.35Z"/><path class="h" d="M404.36,102.09c.37,3.21,2.77,7.06-2.63,8.48-.08-.52-.17-1.03-.25-1.54-.34-2.72-.69-5.44-1.03-8.16-.87-.29-1.75-.57-2.62-.86-1.08,1.63-2.16,3.25-3.24,4.88h0v-6.97h-4.15c-.01-.93-.02-1.87-.04-2.8,3.72-2.81,7.44-5.63,11.16-8.44,7.37,3.47-1.75,5.4-1.32,6.46,1.9,4.12,3.02,6.54,4.13,8.95Z"/><path class="w" d="M400.63,73.52c-2.45,1.12-4.91,2.23-7.36,3.34-.02-1.49-.04-2.98-.06-4.48v-7.89c1.04-3.45,2.09-6.91,3.14-10.36,.86,1.53,1.73,3.06,2.6,4.59,.95,2.78,1.91,5.57,2.86,8.35l-1.18,6.45Z"/><path class="m" d="M401.81,67.08c-.95-2.78-1.91-5.57-2.86-8.35,.88-2,2.25-3.94,2.54-6.02,.72-5.34,.96-10.74,1.39-16.12l1.43-.08c.44,9.52,.95,19.04,1.15,28.57,.01,.64-2.37,1.33-3.64,2Z"/><path class="o" d="M422.44,26.8c-1.85-4.23-3.69-8.46-5.54-12.7,.03-1.86,.05-3.73,.08-5.59,8.38,1.07,4.85,6.63,4.19,11.1,.42,2.4,.85,4.79,1.27,7.19Z"/><path class="w" d="M412.42,96.37c-.77,.18-1.55,.35-2.32,.53,.37-1.98,.74-3.96,1.12-5.94,.46-1.95,.91-3.91,1.37-5.86,1-1.78,1.99-3.56,2.99-5.34,.43,0,.86,.02,1.28,.07,.32,1.27,.63,2.55,.94,3.82,.14,.47,.28,.95,.42,1.43-.73,1.03-1.47,2.07-2.2,3.1-.22,1.39-.44,2.78-.66,4.17-.29,.24-.41,.55-.37,.92-.86,1.04-1.71,2.07-2.57,3.11Z"/><path class="q" d="M401.55,86.68c-3.72,2.81-7.44,5.63-11.16,8.44-.04-1.91-.08-3.83-.13-5.74,3.73-1.53,7.45-3.06,11.18-4.59,.03,.63,.07,1.26,.1,1.89Z"/><path class="n" d="M412.59,85.1c-.46,1.95-.91,3.9-1.37,5.86,.46-1.95,.91-3.9,1.37-5.86Z"/><path class="q" d="M404.31,36.51c-.48,.03-.95,.05-1.43,.08-.07-.29-.11-.58-.12-.87,.1-.71,.2-1.42,.3-2.13,.42,.97,.83,1.95,1.25,2.93Z"/><path class="y" d="M425.35,61.77c-.19-.42-.29-1.11-.59-1.22-9.46-3.28-5.66-11.36-6.37-17.75-.3-2.74-.49-5.65,.11-8.29,.42-1.84,2.27-3.36,3.48-5.02l.72,1.29c-.1,4.7-.19,9.4-.29,14.1,1.03,1.8,2.07,3.59,3.1,5.39-.06,3.83-.11,7.67-.17,11.5Z"/><path class="d" d="M422.7,30.79l-.72-1.29c.15-.9,.31-1.8,.46-2.69-.42-2.4-.85-4.79-1.27-7.19,1.55-.28,3.11-.56,5.53-.99,.63,4.68,1.23,9.12,1.91,14.19-2.57-.88-4.24-1.45-5.92-2.03Z"/><path class="p" d="M465.82,19.66c.95,3.37,1.9,6.74,2.85,10.11l-2.14-.74c-1.63,2.01-3.26,4.03-4.89,6.04-.98-.51-1.97-1.02-2.95-1.52-2.63-1.99-5.27-3.98-7.9-5.96-.8-3.07-1.61-6.13-2.41-9.2,3.93-3.31,7.63-4.58,11.76,.07,1.03,1.17,3.74,.85,5.68,1.21Z"/><path class="n" d="M448.38,18.38c.8,3.07,1.61,6.13,2.41,9.2-.58,1.45-.82,3.22-1.82,4.24-.98,1-2.74,1.23-4.15,1.8,.46-2.82,.92-5.65,1.38-8.47-.44-3.77-.87-7.53-1.31-11.3,1.16,1.51,2.32,3.02,3.49,4.53Z"/><path class="q" d="M425.35,61.77c.06-3.83,.11-7.67,.17-11.5,1.79,.1,3.57,.19,5.35,.29,.48,6.44,.96,12.87,1.43,19.31-1.78-.42-3.56-.83-5.34-1.25-.54-2.28-1.08-4.57-1.62-6.85Z"/><path class="m" d="M392.32,22.78c-.12-5.15-.25-10.3-.37-15.44,.4-1.01,.8-2.01,1.19-3.02,1.37,.99,3.73,1.84,3.89,2.99,.36,2.59-.38,5.33-.67,8.02,.87,2.85,1.74,5.69,2.6,8.54-.04,3.71-.07,7.41-.11,11.12-.5,.03-1.01,.07-1.51,.1-.46-2.35-.59-4.83-1.46-7.02-.76-1.93-2.34-3.54-3.56-5.28Z"/><path class="b" d="M397.35,35.08c.5-.03,1.01-.07,1.51-.1,1.3,.24,2.6,.48,3.9,.73,.01,.3,.06,.59,.12,.88-.43,5.38-.67,10.78-1.39,16.12-.28,2.08-1.66,4.02-2.54,6.02-.87-1.53-1.73-3.06-2.6-4.59-.14-1.71-.27-3.41-.41-5.12,.9-2.2,2.33-4.34,2.54-6.6,.23-2.39-.71-4.89-1.14-7.34Z"/><path class="q" d="M398.97,23.86c-.87-2.85-1.74-5.69-2.6-8.54,6.27,1.2,4.01,5,2.6,8.54Z"/><path class="m" d="M388.89,15.39c-.44,.04-.88,.09-1.32,.13,.44-.06,.88-.1,1.32-.13Z"/><path class="l" d="M358.48,31.39c1.26-.41,2.53-.82,3.79-1.22,.03,.32,.09,.63,.19,.93,1.39,11.54,2.79,23.08,4.18,34.61-2.79-.42-5.58-.84-8.37-1.26-.01-.47-.02-.94-.03-1.4,.76-1.67,1.52-3.34,2.28-5.01-1.58-.69-3.11-1.68-4.77-1.99-1.52-.29-3.17,.15-4.76,.27-2.23-.57-4.46-1.15-6.69-1.72,1.93-.93,3.8-2.44,5.82-2.69,9.23-1.12,11.93-5.34,8.79-13.73-.76-2.03-.31-4.51-.41-6.79Z"/><path class="h" d="M358.48,31.39c.11,2.27-.35,4.76,.41,6.79,3.14,8.39,.44,12.62-8.79,13.73-2.02,.24-3.88,1.76-5.82,2.69-1.85,.46-3.71,.92-5.56,1.39,3.93-5.47,7.7-11.06,11.84-16.36,2.33-2.98,5.26-5.5,7.91-8.23Z"/><path class="n" d="M373.89,11.6c1.32,4.22,2.82,8.39,3.88,12.68,.51,2.06,.19,4.33,.25,6.51-2.52,1.3-5.05,2.6-8.26,4.25,.5-2.52,.8-4.04,1.1-5.57l-1.34-9.72c1.46-2.72,2.91-5.43,4.37-8.15Z"/><path class="o" d="M336.93,63.3c-.75-1.07-1.49-2.14-2.24-3.21,1.34-1.37,2.69-2.73,4.03-4.1,1.85-.46,3.71-.92,5.56-1.39,2.23,.57,4.46,1.15,6.7,1.72-.84,1.76-1.68,3.52-2.51,5.29l-4.38-.37c-2.39,.69-4.77,1.38-7.16,2.06Z"/><path class="ab" d="M320.5,74.16c5.44,.35,10.88,.71,16.32,1.06,1.49,1.75,8.16,2.05,1.7,6.04l-2.27-.58c-1.96-.79-3.92-1.57-5.88-2.36-1.85-.5-3.7-1.01-5.55-1.51-1.89,.03-3.77,.05-5.66,.08,.04-.25,.04-.49,0-.74l1.34-1.99Z"/><path class="h" d="M369.52,19.75c.45,3.24,.89,6.48,1.34,9.72-2.8,.55-5.6,1.09-8.39,1.64-.1-.3-.16-.61-.19-.93,2.41-3.48,4.83-6.95,7.24-10.42Z"/><path class="s" d="M324.81,76.81c1.85,.5,3.7,1.01,5.55,1.51-.49,.67-.98,1.34-1.99,2.71h-12.25c1.01-1.63,2.02-3.25,3.04-4.88,.04,.25,.03,.49,0,.74,1.89-.03,3.77-.05,5.66-.08Z"/><path class="m" d="M297.82,162.27c2.44-.09,4.89-.19,7.33-.28,.47,5.67,6.51-.8,7.06,3.61l4.11-4.82c1,.5,1.99,1.01,2.99,1.51,.57,2.98,1.15,5.95,1.73,8.95-3.04,1.87-9.9,.58-6.55,7.83,.32,.23,.53,.53,.62,.92-3.74,2.92-7.47,5.85-11.21,8.77-.55-1.46-1.11-2.92-1.66-4.38,.64-6.37-2.61-9.59-8.36-8.3l-7.8,1.64c1.27-1.42,2.53-2.83,3.8-4.25,2.27-.78,4.53-1.56,7.06-2.43-.69-2.3-1.19-3.99-1.7-5.68,.71-1.06,1.43-2.11,2.14-3.17l.43,.08Z"/><path class="o" d="M289.89,173.47c-1.27,1.42-2.53,2.83-3.8,4.25-4.09,4.3-8.18,8.6-7.59,15.24-1.35-.94-3.32-1.58-3.92-2.87-.96-2.08-1.02-4.59-1.46-6.91h-.17c.46-1.04,.92-2.09,1.37-3.13,1.02-2.8,1.51-5.98,3.19-8.3,2.19-3.02,5.31-5.36,8.04-7.99-1.82,3.98-3.65,7.97-6.09,13.29,2.86-1.62,5.2-2.29,6.48-3.84,1.38-1.66,1.78-4.13,2.6-6.25,.63,.15,1.25,.3,1.88,.45-.18,2.02-.36,4.05-.54,6.07Z"/><path class="b" d="M270.13,195.77c-1.37,.43-2.74,.86-4.11,1.29,.35-3.73-1.34-3.65-4.45-3.06-4.06,.78-6.2-.92-3.86-5.33,1.37-1.85,2.76-3.69,4.11-5.56,1.37-1.9,2.71-3.83,4.07-5.74,2.35,1.93,4.7,3.86,7.05,5.79h.17c-1,4.2-1.99,8.4-2.99,12.6Z"/><path class="aa" d="M257.72,188.68c-2.35,4.41-.21,6.12,3.86,5.33,3.1-.6,4.8-.68,4.45,3.06-.94,.95-1.87,1.9-2.81,2.85-4.18-.49-8.36-.98-12.54-1.47,.93-3.21,1.86-6.42,2.78-9.62,1.42-.05,2.84-.09,4.26-.14Z"/><path class="t" d="M289.89,173.47c.18-2.02,.36-4.05,.54-6.07-.63-.15-1.25-.3-1.88-.45-.83,2.12-1.22,4.6-2.6,6.25-1.29,1.55-3.62,2.22-6.48,3.84,2.44-5.32,4.26-9.31,6.09-13.29,1.89,.4,3.77,.81,5.66,1.21,1.35,.13,2.7,.27,4.05,.4,.5,1.69,1.01,3.38,1.7,5.68-2.53,.87-4.79,1.65-7.06,2.43Z"/><path class="t" d="M272.95,183.17c-2.35-1.93-4.7-3.86-7.05-5.79,1.72-2.35,3.45-4.7,5.9-8.02,1.14,4.81,1.83,7.75,2.53,10.69-.46,1.04-.92,2.09-1.37,3.13Z"/><path class="x" d="M295.25,165.36c-1.35-.13-2.7-.27-4.05-.4,2.06-.92,4.12-1.85,6.18-2.77-.71,1.06-1.42,2.11-2.13,3.17Z"/><path class="x" d="M288.36,149.69c.58,.83,1.16,1.67,1.74,2.5-.57,.06-1.14,.12-1.71,.18l.04,.04c-.02-.91-.04-1.81-.07-2.72Z"/><path class="x" d="M288.39,152.37l-1.44,1.05c.49-.33,.99-.67,1.48-1l-.04-.04Z"/><path class="h" d="M286.77,307.49c-.88-.04-1.76-.07-2.63-.11,1.81-.85,3.62-1.7,5.43-2.55-.04,.87-.07,1.74-.1,2.61-.9,.02-1.79,.04-2.69,.05Z"/><path class="f" d="M270.13,195.77c1-4.2,1.99-8.4,2.99-12.6,.44,2.33,.5,4.83,1.46,6.91,.59,1.29,2.56,1.94,3.92,2.87,2.41,1.77,4.82,3.54,7.23,5.31,2.26-.26,4.52-.52,6.78-.77l3.4,3.75c.66-.76,1.33-1.52,1.99-2.29-1.29-.62-2.57-1.23-3.86-1.85l.27-2.72c1.57-.99,3.09-2.07,4.73-2.93,1.13-.6,2.43-.88,3.66-1.3-3.55,9.23-2.59,11.07,6.33,12.57,1.54,.26,3,.98,4.49,1.49-.92,2.29-1.84,4.58-2.76,6.88h-4.18c-4.16-1.59-8.75-2.54-12.35-4.96-4.09-2.74-6.98-2.4-10.07,.9-2.32-.03-4.63-.05-6.95-.08l-7.52-6.48c.05-.53,.25-2.61,.45-4.7Z"/><path class="v" d="M277.2,206.95c2.32,.03,4.63,.05,6.95,.08-.03,.43-.02,.86,.03,1.28,3.3,1.79,6.6,3.58,9.9,5.37l2.69,.15,2.8,.06,6.99,1.42c1.86,.94,3.72,1.88,5.58,2.82,1.4,.92,2.79,1.85,4.19,2.77,.44,.98,.88,1.96,1.32,2.94-4.91-.29-9.82-.58-14.4-.84,1.29,1.71,3,3.98,4.72,6.25l-.13,.13c-2.36-1.29-4.64-2.74-7.09-3.84-2.68-1.2-5.5-2.06-8.26-3.07-3.69-2.88-7.38-5.76-11.07-8.65-1.4-2.29-2.81-4.58-4.21-6.87Z"/><path class="e" d="M306.55,252.85c-2.03,.57-4.05,1.13-6.08,1.7,.87-8.83,2.33-10.15,12.8-11.56,.08,1.16,.15,2.32,.23,3.49-2.32,2.13-4.63,4.25-6.95,6.37Z"/><path class="e" d="M313.36,242.04c.56,.24,1.13,.47,1.69,.71-.57,.06-1.13,.13-1.7,.19-.01-.3,0-.6,0-.89Z"/><path class="v" d="M287.15,264.12c.88,2.34,1.76,4.68,2.64,7.02-.91,.02-1.82,.05-2.72,.07l-.06-.06c-.48-.95-.97-1.9-1.45-2.84,.53-1.39,1.06-2.79,1.59-4.18Z"/><path class="m" d="M285.55,268.3c.48,.95,.97,1.9,1.45,2.84-.88-.02-1.76-.04-2.63-.06,.39-.93,.79-1.86,1.18-2.79Z"/><path class="v" d="M310.59,231.76c-.46-.07-.92-.13-1.39-.2-.46-.73-.92-1.46-1.38-2.19l.13-.12c.88,.84,1.76,1.68,2.64,2.51Z"/><path class="e" d="M310.59,231.76c-.88-.84-1.76-1.68-2.64-2.51-1.71-2.27-3.43-4.54-4.72-6.25,4.58,.27,9.49,.56,14.4,.84,.94,.47,1.89,.94,2.83,1.41l1.45,2.62,1.69,1.84c0,.38-.06,.76-.17,1.12-2.48-.34-4.97-.98-7.42-.88-1.33,.05-2.6,1.38-3.9,2.13l-1.52-.31Z"/><path class="x" d="M312.11,232.07c1.3-.75,2.57-2.08,3.9-2.13,2.46-.1,4.95,.55,7.42,.88,.37,1.27,.74,2.54,1.11,3.81-3.2,.06-6.4,.13-9.6,.2-.02-.39,0-.77,.02-1.16-.95-.54-1.89-1.07-2.84-1.6h-.02Z"/><path class="e" d="M312.14,232.06c.95,.53,1.89,1.07,2.84,1.6-.95-.53-1.89-1.07-2.84-1.6Z"/><path class="ab" d="M252.22,387.11c-.51,.45-1.02,.89-1.54,1.33-2.89,.75-5.77,1.5-8.66,2.24,.09-1.66,.19-3.31,.28-4.96,3.31,.46,6.61,.93,9.92,1.39Z"/><path class="aa" d="M225.67,411.39c-2.43-1.86,2.74-8.02-4.16-7.35,2.01-2.7,4.01-5.4,6.01-8.09l-1.24-1.42c2.12-.58,4.25-1.17,6.37-1.75,.41,.45,.82,.91,1.23,1.36,.97,1.82,1.94,3.64,2.91,5.46-.49,.52-.98,1.04-1.46,1.56l.03-.04c-.46,.48-.91,.97-1.37,1.45,2.33,4.71-3.2,5.29-4.3,8.2-1.34,.2-2.69,.41-4.03,.61Z"/><path class="p" d="M233.89,394.14c-.41-.45-.82-.91-1.23-1.36,3.13-.55,6.25-1.11,9.38-1.66,2.7,.77,5.4,1.55,7.76,2.22-1.24,.93-2.96,2.22-4.69,3.52-1.87,.13-3.74,.26-5.6,.38,.52-.95,1.04-1.9,1.7-3.1h-7.31Z"/><path class="d" d="M233.95,431.75c-.5,9.87-1,19.74-1.51,29.61-.91-.06-1.81-.12-2.72-.18-.47-.08-.94-.17-1.4-.25-.05-6.15,.84-12.64-5.96-16.32,.18-4.18,.37-8.35,.55-12.53,3.68-.11,7.36-.22,11.04-.33Z"/><path class="k" d="M224.22,468.1c-2.33-2.92-4.66-5.83-6.99-8.75-2.46-6.5,2.83-6.55,6.57-7.9,.98,4.26,1.96,8.52,2.94,12.78,.04,1.28,.08,2.57,.13,3.85-.88,0-1.76,.01-2.65,.02Z"/><path class="o" d="M226.74,464.23c-.98-4.26-1.96-8.52-2.94-12.78-.48-2.28-.95-4.57-1.43-6.85,6.8,3.68,5.91,10.17,5.96,16.32-.53,1.11-1.06,2.21-1.59,3.31Z"/><path class="g" d="M235.33,401.16c.49-.52,.98-1.04,1.46-1.55,.9,.01,1.8,.02,2.7,.04,.92,1.39,1.84,2.79,2.76,4.18-2.31-.89-4.62-1.77-6.93-2.66Z"/><path class="g" d="M233.99,402.58c.46-.48,.91-.97,1.37-1.45-.46,.48-.91,.97-1.37,1.45Z"/><path class="v" d="M239.5,399.64c-.9-.01-1.8-.02-2.7-.04-.97-1.82-1.94-3.64-2.91-5.46,2.32,0,4.64,0,7.31,0-.66,1.2-1.18,2.15-1.7,3.1,0,.8,0,1.6,0,2.4Z"/><path class="k" d="M394.51,148.16c-2.29,2.86-4.59,5.72-6.88,8.58-1.22-3.19-2.44-6.38-3.58-9.35-5.23,.8-9.98,1.52-14.72,2.25-.5-.98-.99-1.96-1.49-2.93,.09-1.34,.19-2.67,.28-4.01,1.4-1.23,2.8-2.46,4.2-3.69l4.47-.34c1.27,.85,2.54,1.71,3.81,2.56-.83,.99-1.67,1.99-2.5,2.98,.54,.36,1.08,.73,1.62,1.09,.78-1.35,1.55-2.7,2.33-4.05,2.28-1.92,4.56-3.83,6.84-5.75,1.88,4.22,3.75,8.45,5.63,12.67Z"/><path class="h" d="M369.33,149.63c4.75-.72,9.49-1.45,14.72-2.25,1.13,2.97,2.36,6.16,3.58,9.35-2.6,6.73-8.1,9.88-15.84,12.9,.94-2.92,1.44-4.48,1.94-6.04,1.65-2.68,3.3-5.36,4.96-8.05-.59-.41-1.18-.82-1.78-1.23l-4.63,.77c.09-.44,.08-.88-.02-1.32-.02-.47-.04-.94-.05-1.41,.12-.16,.24-.31,.36-.47l-.31,.52c-1.93-.45-3.85-.91-5.78-1.36,.95-.47,1.9-.95,2.85-1.42Z"/><path class="w" d="M360.5,165.03c1.8,4.44,3.61,8.89,5.4,13.33-.7,1.11-1.4,2.21-2.09,3.31-.36-.03-.73-.03-1.09,0-2.92-1.79-5.84-3.58-8.76-5.37,.61-2.16,2.43-5.41,1.63-6.31-6.52-7.31,1.1-7.08,4.53-9.09,.13,1.37,.26,2.74,.39,4.11Z"/><path class="x" d="M394.51,148.16c-1.88-4.22-3.75-8.45-5.63-12.67,.09-.38,.17-.76,.25-1.14,2.66-2.84,5.32-5.67,7.98-8.51,.69,.97,2.17,2.43,1.93,2.81-1.18,1.88-2.82,3.47-5.11,6.1,2.86,1.89,5.33,3.52,7.8,5.16-1.92,2.51-3.84,5.01-5.76,7.51-.49,.24-.98,.49-1.47,.73Z"/><path class="o" d="M360.5,165.03c-.13-1.37-.26-2.74-.39-4.11,.76-1.88,1.53-3.76,2.29-5.65l1.47-7.1c.87,.96,1.75,1.92,2.62,2.88,1.93,.45,3.85,.91,5.78,1.36l-.05-.05c.02,.47,.04,.94,.05,1.41-1.9,2.4-3.61,5-5.78,7.14-1.7,1.68-3.98,2.77-6,4.13Z"/><path class="l" d="M377.64,176.07c.97,1.93,1.94,3.86,2.91,5.79-2.33,1.63-4.52,3.52-7.03,4.8-2.61,1.34-5.52,2.08-8.29,3.09l.03-2.47c.97-.92,1.95-1.84,2.92-2.76,.41,.01,.82,.02,1.24,.02,.48-.48,.95-.95,1.43-1.43,.47-.94,.93-1.87,1.4-2.81,.4-.31,.8-.63,1.2-.94,1.4-1.09,2.8-2.19,4.2-3.28Z"/><path class="o" d="M372.29,155.08l4.63-.77c.59,.41,1.18,.82,1.78,1.23-1.65,2.68-3.3,5.36-4.96,8.05-5.88-1.92-1.15-5.64-1.45-8.51Z"/><path class="k" d="M372.24,180.3c-.47,.94-.93,1.87-1.4,2.81-.48,.48-.95,.95-1.43,1.43-.41,0-.82,0-1.24-.01-.97,.92-1.95,1.84-2.92,2.76-.01,.82-.02,1.65-.03,2.47-.92,.09-1.85,.19-2.77,.28,0-.92-.02-1.85-.02-2.77,.46-1.86,.91-3.72,1.37-5.59,.7-1.1,1.39-2.21,2.09-3.31,2.13,.3,4.27,.59,6.4,.89-.03,.35-.05,.69-.05,1.04Z"/><path class="d" d="M371.27,170.51c.67,.94,1.39,1.85,1.95,2.85,.05,.09-1.24,1.16-1.33,1.08-.89-.74-1.65-1.64-2.45-2.49,.61-.48,1.22-.96,1.84-1.45Z"/><path class="e" d="M391.58,174.38c-.82,.62-1.63,1.24-2.45,1.85,.82-.62,1.63-1.24,2.45-1.85Z"/><path class="x" d="M372.24,180.3c0-.35,.02-.69,.05-1.04,.39-.12,.78-.08,1.15,.09-.4,.31-.8,.63-1.2,.94Z"/><path class="h" d="M371.27,170.51c-.61,.48-1.22,.96-1.84,1.45,.61-.48,1.22-.96,1.84-1.45Z"/><path class="ab" d="M386.51,186.52c-.46-.91-.92-1.82-1.38-2.72,1.29-1.19,2.58-2.39,3.87-3.59,.47,.53,.93,1.06,1.4,1.59,.08,.7,.17,1.41,.25,2.11-.01,.26-.08,.5-.21,.73-1.31,.63-2.62,1.25-3.93,1.88Z"/><path class="e" d="M390.4,181.8c-.47-.53-.93-1.06-1.4-1.59,1.41,.07,2.81,.15,4.22,.22-.94,.46-1.88,.91-2.82,1.37Z"/><path class="w" d="M386.51,186.52c1.31-.63,2.62-1.25,3.93-1.88-1.59,1.28-3.19,2.55-4.79,3.83,.28-.65,.57-1.3,.86-1.95Z"/><path class="ab" d="M285.47,437.56c-.87-1.91-1.75-3.82-2.62-5.73-.1-.88-.2-1.76-.31-2.64,.59-.06,1.17-.11,1.76-.17,1.36,0,2.73,0,4.09,0,0,1.4,0,2.79,0,4.19-.98,1.45-1.96,2.89-2.93,4.34Z"/><path class="v" d="M285.47,437.56c.98-1.45,1.96-2.89,2.93-4.34,.42,1.41,.85,2.83,1.27,4.24-1.39,0-2.77,.01-4.16,.02l-.04,.07Z"/><path class="v" d="M288.4,429.03c-1.36,0-2.73,0-4.09,0,.62-.98,1.24-1.96,1.86-2.94,.76,.04,1.51,.09,2.26,.13,0,.94-.02,1.88-.03,2.82Z"/><path class="ab" d="M285.51,437.48c1.39,0,2.78-.01,4.16-.02-.44,1.12-.87,2.24-1.3,3.36-.95-1.11-1.91-2.22-2.86-3.34Z"/><path class="q" d="M268.96,447.26c-1.46-.96-2.92-1.93-4.38-2.89-.48-2.84-.95-5.68-1.43-8.52,2.82,3.77,5.63,7.54,8.45,11.32-.45,.03-.89,.04-1.34,.03-.43,.01-.86,.03-1.29,.07Z"/><path class="e" d="M270.25,447.19c.45,0,.89,0,1.34-.03,.08,.45,.12,.91,.11,1.37-.48-.45-.96-.89-1.45-1.34Z"/><path class="h" d="M280,431.83c-.39,.38-.77,.76-1.16,1.14-.08-.85-.17-1.7-.26-2.55,.47,.47,.94,.94,1.41,1.41Z"/><path class="k" d="M286.77,307.49c.9-.02,1.8-.04,2.69-.05-.52,1.08-1.03,2.17-1.54,3.25-.38-1.06-.76-2.13-1.15-3.2Z"/><path class="m" d="M287.02,273.94c.48,.93,.96,1.86,1.44,2.79-.48-.93-.96-1.86-1.44-2.79Z"/><path class="p" d="M288.44,279.57c-.19,.61-.38,1.23-.58,1.84-.18-.13-.52-.35-.52-.37,.32-.52,.68-1.03,1.03-1.54l.07,.06Z"/><path class="ab" d="M458.69,33.54c.98,.51,1.97,1.02,2.95,1.52,.63,1.07,1.36,2.09,1.86,3.22,.99,2.19,1.86,4.43,2.78,6.65,.2,1.26,.4,2.52,.6,3.79-1.28,.58-2.56,1.16-3.83,1.74-1.06-3.35-2.12-6.69-3.17-10.04-.39-2.29-.79-4.59-1.18-6.88Z"/><path class="o" d="M362.46,190.03c.92-.09,1.85-.18,2.77-.28,2.78-1.01,5.69-1.75,8.29-3.09,2.51-1.28,4.7-3.18,7.03-4.8-2.69,4.65-5.39,9.3-8.08,13.95-.99,.91-1.97,1.82-2.96,2.74-3.32,2.26-6.63,4.53-9.95,6.79-.42,.05-.83,.11-1.25,.18-2.34,1.39-4.67,2.78-7.01,4.17h0c-4.19,.42-8.37,.84-12.56,1.26-2.34-.92-4.68-1.84-7.02-2.75-2.31-.89-4.62-1.79-6.94-2.68-1.11,.99-3.26,2.11-3.15,2.94,.61,4.69-1.96,6.08-5.82,6.96-1.36,.31-2.46,1.77-3.68,2.71-1.86-.94-3.72-1.88-5.58-2.82,0-1.4,.01-2.8,.02-4.2,1.39,0,2.79,0,4.18-.01,6.26,1.97,6.78,1.46,6.95-6.74,3.5-.22,7.14,.06,10.48-.79,3.73-.95,9.08-.18,9.53-6.32,1.2,.33,2.39,.65,3.59,.98l-.12,1.47c1.05-.4,2.1-.8,3.15-1.2,1.84-.43,3.67-.86,5.51-1.29,3.76-2.32,7.52-4.63,11.28-6.95,.46,.05,.9-.03,1.32-.22Z"/><path class="v" d="M331.72,208.2c2.34,.92,4.68,1.84,7.01,2.75,1.39,2.85,2.79,5.69,4.18,8.54-1.88,1.78-3.77,3.56-5.65,5.35-.26-.59-.69-1.71-.77-1.69-4.88,1.51-9.73,3.11-14.58,4.71-.48-.87-.96-1.75-1.45-2.62,5.02-2.39,10.03-4.77,14.38-6.84-4.04-1.64-5.51-5.16-3.13-10.19Z"/><path class="h" d="M342.91,219.5c-1.39-2.85-2.79-5.69-4.18-8.54,4.19-.42,8.37-.84,12.56-1.26,1.57,6.99-3.88,7.99-8.38,9.8Z"/><path class="h" d="M321.91,227.86c4.85-1.59,9.7-3.2,14.58-4.71,.07-.02,.5,1.1,.77,1.69-.02,.44-.1,.88-.22,1.31-2.26,.88-4.51,1.77-6.76,2.66-.27-.48-.54-.96-.81-1.44-.18,.56-.36,1.13-.53,1.69-1.78,.21-3.56,.42-5.34,.63-.56-.61-1.13-1.22-1.69-1.83Z"/><path class="h" d="M359.55,205.35c3.32-2.26,6.63-4.53,9.95-6.79-.4,1.35-.8,2.7-1.2,4.05-2.92,.92-5.83,1.83-8.75,2.75Z"/><path class="h" d="M351.29,209.69c2.34-1.39,4.67-2.78,7.01-4.17-2.34,1.39-4.67,2.78-7.01,4.17Z"/><path class="b" d="M226.74,464.23c.53-1.1,1.06-2.2,1.59-3.31,.47,.08,.94,.17,1.4,.25,1.02,5.04,2.03,10.09,3.04,15.13-.46,.19-.93,.38-1.39,.57-1.51-2.93-3.01-5.86-4.52-8.8-.04-1.28-.08-2.57-.13-3.85Z"/><path class="n" d="M439.29,57.39c.21-2.36,.39-4.73,.63-7.09,.23-2.3,.52-4.59,.78-6.89,1.38-.47,2.76-.94,4.14-1.4,.02,4.64,.04,9.28,.06,13.91-1.87,.49-3.74,.98-5.61,1.47Z"/><path class="j" d="M444.84,42.01l-4.14,1.4c.03-3.95-.59-8.06,.31-11.81,.59-2.43,3.39-4.32,5.2-6.46-.46,2.82-.92,5.65-1.38,8.47,0,2.8,.01,5.59,.02,8.39Z"/><path class="j" d="M439.29,57.39c1.87-.49,3.74-.98,5.61-1.47,.51,.06,1.01,.11,1.52,.17-.46,3.29-.91,6.58-1.37,9.87-6.38,.14-5.95-4.3-5.76-8.57Z"/><path class="v" d="M328.94,229.06c.18-.56,.36-1.13,.53-1.69,.27,.48,.54,.96,.81,1.44-.45,.08-.89,.17-1.34,.25Z"/><path class="v" d="M396.17,119.03c-.81,1.3-1.62,2.6-2.42,3.89-1.53,.32-4.01,.15-4.46,1.02-2.88,5.59-8.39,3.53-12.71,4.82-.03-2.36-.05-4.71-.08-7.06,4.62-2.73,6.42-5.83,1.32-9.86l2.89-4.2c.42,0,.83,.01,1.25,.02,.5,1.41,1.01,2.81,1.51,4.22,.41,10.04,1.14,10.46,9.49,5.91,.65-.36,2.12,.79,3.21,1.24Z"/><path class="p" d="M396.17,119.03c-1.09-.45-2.56-1.59-3.21-1.24-8.35,4.55-9.09,4.13-9.49-5.91,1.48,1.14,2.96,2.28,4.44,3.42-.21-.6-.42-1.21-.63-1.81,4.74-1.49,9.48-2.98,14.22-4.47,.08,.51,.17,1.03,.25,1.54l-.1-.05,.1,1.66c3.04,6.26-1.2,6.61-5.57,6.85Z"/><path class="p" d="M376.57,128.77c4.32-1.29,9.83,.77,12.71-4.82,.45-.88,2.93-.71,4.46-1.02,1.23,.04,2.47,.08,3.7,.12-.11,.93-.22,1.86-.33,2.79-2.66,2.84-5.32,5.67-7.98,8.51-3.47-6.62-8.37-1.45-12.63-1.52,.02-1.35,.04-2.7,.06-4.06Z"/><path class="h" d="M401.74,112.18l-.1-1.66c.03,.55,.07,1.11,.1,1.66Z"/><path class="v" d="M416.02,88.18c.73-1.03,1.47-2.07,2.2-3.1-.73,1.03-1.47,2.07-2.2,3.1Z"/><path class="ab" d="M412.42,96.37c.86-1.04,1.72-2.07,2.57-3.11,.18,2.01,.37,4.03,.55,6.04-1.04-.98-2.08-1.95-3.13-2.93Z"/><path class="x" d="M250.8,371.7c.87-.58,1.74-1.16,2.6-1.75-.87,.58-1.74,1.17-2.6,1.75Z"/><path class="m" d="M295.4,271.14l.57,.58c-.12-.03-.29-.02-.35-.1-.11-.13-.15-.31-.22-.47h.01Z"/><path class="y" d="M446.41,56.09c-.51-.06-1.01-.11-1.52-.17-.02-4.64-.04-9.28-.06-13.91,0-2.8-.01-5.59-.02-8.39,1.42-.57,3.17-.8,4.15-1.8,1-1.02,1.24-2.79,1.82-4.24,2.63,1.98,5.27,3.97,7.9,5.96,.39,2.29,.79,4.59,1.18,6.88-2.54,.92-5.07,1.84-8.2,2.98,1.51,3.4,2.94,6.6,4.36,9.79-1.03,.53-2.07,1.06-3.1,1.59-1.78,.36-3.56,.71-5.34,1.07-.39,.09-.78,.17-1.18,.23Z"/><path class="k" d="M463.16,54.56c.44,.43,.88,.85,1.32,1.28-.46,.08-.92,.12-1.38,.11-.01-.46,0-.92,.07-1.38Z"/><path class="l" d="M447.59,55.87c1.78-.36,3.56-.72,5.34-1.07,.03,1.34,.07,2.68,.11,4.02,.03,1.36,.07,2.72,.1,4.07-.48,.91-.95,1.82-1.43,2.73-.95-.06-1.89-.11-2.83-.17-.43-3.2-.86-6.39-1.28-9.58Z"/><path class="s" d="M393.19,64.5c0,2.63,0,5.26,.01,7.89-3.69,2.47-7.38,4.94-11.07,7.42-.4,.1-.81,.16-1.22,.19l-2.08-11.85c-.07-.39-.07-.78,.01-1.17,6.19,.89,4.17-3.78,4.6-6.78-.6-5.48-1.21-10.96-1.81-16.44,.97,1.34,1.94,2.69,2.91,4.03,.71,6.7,1.74,13.23,8.65,16.72Z"/><path class="t" d="M397.35,35.08c.43,2.45,1.36,4.95,1.14,7.34-.21,2.26-1.65,4.4-2.54,6.6-1.21-8.75-2.41-17.5-3.62-26.25,1.22,1.75,2.8,3.36,3.56,5.29,.87,2.19,1.01,4.67,1.46,7.02Z"/><path class="p" d="M384.54,47.78c-.97-1.34-1.94-2.69-2.91-4.03,.16-3.39,.33-6.78,.49-10.17,2.23-.5,4.46-1,6.69-1.5-.86,5.39,3.46,12.19-4.28,15.7Z"/><path class="b" d="M388.82,32.08c-2.23,.5-4.46,1-6.7,1.5-.96-.57-1.92-1.14-2.88-1.71,.08-.35,.08-.7,0-1.04,.5-1.9,1.01-3.79,1.51-5.69,2.69,.05,5.38,.1,8.07,.15v6.79Z"/><path class="m" d="M388.82,25.29c-2.69-.05-5.38-.1-8.07-.15-.34-4.72-.67-9.44-1-14.17,.73,.78,2.22,1.76,2.08,2.33-1.58,6.36,2.76,5.82,6.99,5.81v6.17Z"/><path class="q" d="M379.25,30.83c.08,.35,.08,.7,0,1.05,0,3.03,.46,6.15-.19,9.03-.34,1.51-2.63,2.58-4.03,3.85l-5.15-5.76-1.47,1.21c.67,6.51,1.33,13.01,2,19.52l2.53,.14,2.1-6.61c.76,1.99,1.77,3.93,2.19,5.99,.24,1.14-.5,2.48-.8,3.73,.8,1.33,1.6,2.67,2.4,4-.08,.39-.08,.78,0,1.17-1.71-.42-3.42-.84-5.13-1.27-.13-.85-.26-1.69-.41-2.65-2.37,1.53-4.5,2.91-6.63,4.3-.01-.93-.02-1.87-.03-2.8-1.39-11.54-2.79-23.08-4.18-34.61,2.8-.54,5.6-1.09,8.39-1.63-.3,1.53-.6,3.05-1.1,5.57,3.22-1.66,5.74-2.96,8.26-4.25,.41,.03,.82,.04,1.23,.04Z"/><path class="b" d="M381.95,107.66c-.42,0-.83-.02-1.25-.02-.03-.94-.06-1.88-.09-2.82,.06-1.36,.13-2.73,.19-4.09,.92-.98,2.5-1.87,2.64-2.95,.34-2.71,.03-5.51-.01-8.27,.96,.51,1.92,1.03,2.87,1.54,.47,4.61,.94,9.23,1.42,13.84-1.92,.92-3.84,1.84-5.75,2.77Z"/><path class="t" d="M383.42,89.51c.05,2.76,.36,5.56,.01,8.27-.14,1.08-1.71,1.97-2.64,2.95-.98-5.56-1.96-11.13-2.93-16.69,.4-.52,.8-1.05,1.2-1.57,1.48,1,2.96,1.99,4.44,2.99-.03,1.35-.05,2.71-.08,4.06Z"/><path class="e" d="M382.14,79.81c3.69-2.47,7.38-4.94,11.07-7.42,.02,1.49,.04,2.98,.06,4.47-2.82,1.99-5.64,3.97-8.46,5.95-.89-1.01-1.79-2.01-2.68-3.01Z"/><path class="m" d="M387.7,104.9c-.47-4.62-.94-9.23-1.42-13.84,1.33-.56,2.65-1.11,3.98-1.67,.04,1.91,.08,3.82,.13,5.74,.01,.93,.02,1.87,.03,2.8-.91,2.32-1.82,4.65-2.72,6.97Z"/><path class="b" d="M382.14,79.81c.89,1,1.79,2,2.68,3.01-.44,.88-.88,1.76-1.32,2.63-1.48-.99-2.96-1.99-4.44-2.99,.62-.82,1.24-1.65,1.85-2.47,.41-.03,.82-.09,1.22-.19Z"/><path class="k" d="M387.7,104.9c.91-2.32,1.82-4.65,2.72-6.97,1.38,0,2.75,0,4.15,0,0,2.53,0,4.74,0,6.96-.62,.17-1.24,.34-1.86,.51l.34,.56c.51-.35,1.02-.71,1.53-1.06,1.08-1.63,2.16-3.25,3.24-4.88,.87,.29,1.75,.57,2.62,.86,.35,2.72,.69,5.44,1.03,8.16-4.74,1.49-9.48,2.98-14.22,4.47,.21,.6,.42,1.21,.63,1.81-1.48-1.14-2.96-2.28-4.44-3.42-.5-1.41-1.01-2.81-1.51-4.22,1.92-.92,3.83-1.84,5.75-2.77Z"/><path class="b" d="M319.31,162.29c-1-.5-1.99-1.01-2.99-1.51,2.33-.93,4.67-1.87,7-2.8,.91-5.85,10.05-9.63,4.65-17.88-2.31,2.1-4.05,3.7-5.8,5.29,2.76-7.39,5.52-14.79,8.28-22.18l2.25,.54v13.5c4.28-2.93,7.11-4.86,9.95-6.79,.11,1.87,.48,3.77,.26,5.61-.31,2.65-.97,5.28-1.64,7.88-.42,1.65-1.11,3.24-1.68,4.86-4.8,.29-8.01,2.17-8.26,7.59-.05,1.06-1.47,2.05-2.26,3.08-.83,.43-1.67,.86-2.5,1.3l1.67,1.51c-.45,.89-.89,1.79-1.34,2.68-.13-.44-.42-.73-.86-.87-.23-.23-.48-.43-.77-.58l-5.98-1.21Z"/><path class="k" d="M339.6,148.79c.57-1.62,1.26-3.2,1.68-4.86,.66-2.6,1.32-5.22,1.64-7.88,.22-1.83-.15-3.73-.26-5.61,2.29-4.83,4.58-9.66,6.87-14.5,1.53,3.25,3.07,6.5,4.6,9.75-.04,1.87-.44,3.81-.05,5.58,.65,2.93,1.82,5.74,2.76,8.6-1.44,1.41-2.88,2.82-4.32,4.23-3.01,.13-7.08-1.6-6.99,3.97-.94,1.16-1.88,2.32-2.81,3.49-1.04-.93-2.08-1.86-3.12-2.79Z"/><path class="p" d="M336.93,63.3c2.39-.69,4.77-1.38,7.16-2.06,1.46,1.52,2.92,3.03,4.38,4.55,.31,2.51,.83,5.02,.89,7.54,.23,9.36,1.73,18.93-3.88,27.48-1.75-3.29-3.5-6.58-5.25-9.87,2.86,.24,4.88-.28,3.55-3.87,.37-5.07,5.31-10.99-2.67-14.53-1.4-3.08-2.79-6.16-4.19-9.25Z"/><path class="j" d="M302.7,127.4c2.36-2.18,4.6-4.52,7.12-6.5,7.03-5.54,13.5-11.27,10.76-21.63,.43-.02,.85-.05,1.28-.1,1.45,.04,2.89,.08,4.34,.12-1.93,8.65-.85,18.55-9.93,24.25-3.62,2.28-7.3,4.45-10.95,6.68-.88-.94-1.75-1.88-2.63-2.82Z"/><path class="e" d="M345.48,100.81c5.61-8.55,4.11-18.12,3.88-27.48-.06-2.52-.58-5.03-.89-7.54,1.87,.93,3.74,1.85,5.61,2.78l-1.36,22.32c-1.41,5.14-2.82,10.28-4.24,15.43-.07,.57-.14,1.15-.21,1.72-.93-2.41-1.86-4.81-2.79-7.22Z"/><path class="j" d="M322.17,145.38c1.75-1.59,3.49-3.18,5.8-5.29,5.39,8.25-3.74,12.04-4.65,17.88-2.43-.53-4.86-1.06-7.28-1.59,2.05-3.67,4.09-7.34,6.14-11.01Z"/><path class="s" d="M343.79,87.07c1.32,3.59-.69,4.12-3.55,3.87-2.9-1.99-5.79-3.97-9.1-6.24,2.38-1.87,3.74-2.95,5.11-4.03,.76,.19,1.51,.39,2.27,.58,1.76,1.94,3.52,3.87,5.28,5.81Z"/><path class="l" d="M302.52,134.56c-.55,1.3-1.1,2.6-1.64,3.91-.43,.86-.87,1.72-1.3,2.59-1.47,.47-2.94,.94-4.96,1.59,.4-4.44,.37-8.39,1.32-12.09,.28-1.1,3.35-1.47,5.14-2.18,.48,2.06,.96,4.12,1.43,6.18Z"/><path class="k" d="M316.04,156.39c2.43,.53,4.86,1.06,7.28,1.59-2.33,.93-4.67,1.87-7,2.8-1.27,1.49-2.55,2.98-4.11,4.82-.55-4.42-6.59,2.06-7.06-3.61,3.63-1.87,7.26-3.73,10.88-5.6Z"/><path class="m" d="M348.28,108.03c.07-.57,.14-1.15,.21-1.72,1.37,1.39,2.74,2.79,4.11,4.18,.51,5.07,1.01,10.14,1.52,15.2-1.53-3.25-3.07-6.5-4.6-9.75-.41-2.64-.83-5.28-1.24-7.92Z"/><path class="v" d="M321.86,99.17c-.43,.04-.85,.08-1.28,.1,.64-2.37,1.14-6.7,1.94-6.76,3.18-.23,4.62,2.01,3.47,5.33-1.37,.44-2.75,.89-4.12,1.33Z"/><path class="k" d="M302.52,134.56c-.48-2.06-.96-4.12-1.43-6.18,.54-.33,1.08-.65,1.62-.98,.88,.94,1.75,1.88,2.63,2.82-.94,1.45-1.88,2.89-2.81,4.33Z"/><path class="p" d="M321.86,99.17c1.37-.44,2.75-.89,4.12-1.33,.07,.48,.14,.97,.22,1.45l-4.34-.12Z"/><path class="i" d="M287,132.83c.56-.71,1.12-1.41,1.68-2.12l.45,.45c-.71,.56-1.41,1.12-2.12,1.68h-.01Z"/><path class="k" d="M299.57,141.05c.43-.86,.87-1.72,1.3-2.59,.32,.52,.64,1.05,.96,1.57l-2.26,1.02Z"/><path class="n" d="M329.47,94.71l-.37-.41c.15-.11,.3-.32,.44-.31,.13,.01,.25,.25,.37,.39l-.44,.34Z"/><path class="q" d="M354.12,125.7c-.51-5.07-1.01-10.14-1.52-15.2,2.97-3.7,3.86-15.47,1.39-19.18-.19-.29-.83-.29-1.27-.42,.45-7.44,.91-14.88,1.36-22.32,.45-1.42,.9-2.83,1.35-4.25l2.8-1.26c.01,.47,.02,.94,.03,1.4,0,6.67-.2,13.34,.04,20,.37,10.57,1.03,21.13,1.56,31.69-.08,8.81-.16,17.63-.24,26.44l-2.8-2.71c-.95-2.86-2.11-5.68-2.76-8.6-.39-1.77,0-3.71,.05-5.58Z"/><path class="x" d="M359.87,116.15c-.54-10.56-1.19-21.12-1.57-31.69-.23-6.66-.04-13.33-.04-20,2.79,.42,5.58,.84,8.37,1.26,0,.93,.02,1.87,.03,2.8-.94,2.01-2.53,3.95-2.71,6.02-.73,8.48-1.07,17-1.46,25.5-.16,3.44-.66,7.23,4.4,7.8-1.15,2.1-2.3,4.2-3.46,6.29-1.19,.67-2.39,1.34-3.58,2.01Z"/><path class="h" d="M358.23,63.06c-.93,.42-1.87,.84-2.8,1.26-2.32-.9-4.65-1.81-6.97-2.71,.84-1.76,1.68-3.53,2.51-5.29,1.59-.11,3.25-.55,4.76-.26,1.66,.31,3.18,1.3,4.77,1.99l-2.28,5.01Z"/><path class="m" d="M343.79,87.07c-1.76-1.94-3.52-3.87-5.28-5.81,6.46-3.99-.2-4.29-1.7-6.04,1.44-.89,2.87-1.78,4.31-2.68,7.98,3.54,3.04,9.45,2.67,14.53Z"/><path class="k" d="M348.47,61.61c2.32,.9,4.65,1.81,6.97,2.71-.45,1.42-.9,2.83-1.35,4.25-1.87-.93-3.74-1.85-5.61-2.78-1.46-1.52-2.92-3.03-4.38-4.55,1.46,.12,2.92,.24,4.38,.37Z"/><path class="r" d="M324.81,76.81c-1.89,.03-3.77,.05-5.66,.08,1.89-.03,3.77-.05,5.66-.08Z"/><path class="p" d="M337.73,197.25c-.46,6.14-5.8,5.37-9.53,6.32-3.34,.85-6.97,.57-10.48,.79-1.4-.05-2.8-.09-4.19-.14-1.5-.51-2.95-1.23-4.49-1.49-8.93-1.5-9.88-3.34-6.34-12.57,.4-.46,.81-.93,1.21-1.39,3.74-2.92,7.47-5.85,11.21-8.77,2.27,1.57,4.53,3.14,6.8,4.71-.85,3.1-1.71,6.2-2.83,10.26,2.19,.53,5.2,1.25,8.21,1.97l2.95-2.72,1.49-1.28c.45,1.37,.9,2.74,1.35,4.1,.11,.69,.22,1.38,.32,2.07,.79-.65,1.57-1.31,2.36-1.96,.65,.04,1.3,.08,1.96,.12Z"/><path class="j" d="M319.31,162.29c1.99,.4,3.98,.8,5.97,1.2,.25,.19,.51,.39,.77,.58,.44,.14,.72,.43,.86,.87,2.55-.63,5.07-1.53,7.65-1.73,.89-.07,1.91,1.61,2.87,2.48-1.03,2.09-2.06,4.17-3.09,6.26l-1.45,.9c1.05,.1,2.09,.21,3.14,.31l.08-.02-.42,1.91c-7.07,1.34-14.14,2.67-21.2,4.01-3.35-7.26,3.51-5.96,6.55-7.83-.58-2.99-1.15-5.97-1.73-8.95Z"/><path class="k" d="M285.73,198.26c-2.41-1.77-4.82-3.54-7.23-5.31-.6-6.63,3.49-10.93,7.59-15.24,2.6-.54,5.2-1.09,7.8-1.63-1.81,5.36-3.56,10.73-5.45,16.06-.74,2.1-1.79,4.08-2.71,6.12Z"/><path class="w" d="M285.73,198.26c.91-2.04,1.96-4.02,2.71-6.12,1.89-5.33,3.65-10.7,5.45-16.06,5.75-1.29,9,1.93,8.36,8.3-5.92,.73-5.07,6.85-7.93,10.01l-.27,2.72c-.51,.13-1.02,.25-1.53,.38-2.26,.26-4.52,.52-6.78,.77Z"/><path class="u" d="M288.83,140.16l-2.74,4.72-2.71-1.64,3.28-4.8c.72,.57,1.45,1.14,2.17,1.71Z"/><path class="u" d="M329.47,94.71l.44-.34c-.12-.14-.24-.37-.37-.39-.13-.01-.29,.2-.44,.31l.37,.41Z"/><g><path class="c" d="M135.89,2.18c2.4,2.59,4.81,5.18,7.21,7.77l1.8,1.31c1.24,1.48,2.48,2.95,3.72,4.43,4.18,5.24,8.17,10.63,12.56,15.68,16.59,19.07,33.3,38.03,49.99,57.02,15.89,18.08,31.81,36.15,47.86,54.4,1.62-1.17,2.88-2.09,4.14-3l10.02,14.38c-2.4,1.97-4.8,3.93-7.2,5.9-2.42,1.68-4.8,3.43-7.26,5.04-8.7,5.69-10.23,10.31-6.84,20.87l-.04-.66s-.66-.04-.64-.04c-.64,.83-1.64,1.57-1.87,2.51-1.01,4.03-1.8,8.11-2.67,12.18-1.91,6.14,.7,10.21,5.96,13.08,2.1,1.04,4.21,2.08,6.31,3.12,5.5,.41,11.02,.75,16.51,1.28,2.01,.19,3.97,.85,5.96,1.29,4.34,7.02,10.05,12.35,18.16,14.72,.36,.15,.73,.24,1.11,.27,1.05,.78,2.1,1.56,3.15,2.35,1.8,1.39,3.59,2.77,5.39,4.16-.92,.03-1.83,.09-2.75,.1-12.73,.1-14.23,2.16-10.49,14.23,.13,.43-.41,1.08-.63,1.62-5.14,.78-10.27,1.55-15.68,2.37v9.47c.02,1.05,.05,2.1,.07,3.15,.11,.92,.21,1.84,.32,2.76,.64,9.93-.48,19.31-8.3,26.61-.97,2.01-1.94,4.02-2.91,6.03-3.48-3.3-7.24-6.35-10.4-9.94C176.88,203.88,95.38,111.08,13.82,18.34c-3.54-4.03-7.56-7.64-11.36-11.44L0,.65c2.7,0,4.7,0,6.7,0,40.11,0,80.21,.02,120.32,0,2.08,0,4.15-.19,6.23-.29,.88,.61,1.76,1.21,2.64,1.82Z"/><g><path class="c" d="M284.22,149.21c4.88-4.11,7.13-3.19,8.3,3.4-.81-.14-1.61-.28-2.42-.42-.58-.83-1.16-1.66-1.74-2.5l-4.15-.48Z"/><path class="c" d="M280.02,150.7c-2.28,1.15-4.56,2.31-6.84,3.46-3.34-4.79-6.68-9.58-10.02-14.38l16.62-18.58c.75,2.4,1.11,5.03,2.36,7.13,1.09,1.82,3.2,3.02,4.85,4.49h.01c-1.02,.82-2.29,2.49-3,2.27-3.71-1.12-3.88,1.49-5.74,3.59-4.75,5.38,.8,8.14,1.75,12.01Z"/><path class="c" d="M280.02,150.7c-.94-3.87-6.5-6.63-1.75-12.01,1.86-2.1,2.03-4.72,5.74-3.59,.71,.21,1.99-1.46,3-2.26,.71-.56,1.41-1.12,2.12-1.68l-.45-.45c-.56,.71-1.12,1.41-1.68,2.12-1.66-1.47-3.76-2.68-4.85-4.49-1.26-2.1-1.62-4.73-2.36-7.13,12.11-13.39,24.22-26.78,36.34-40.17h12.25c1.01-1.37,1.5-2.04,1.99-2.71,1.96,.79,3.92,1.57,5.88,2.36-1.37,1.08-2.73,2.15-5.11,4.03,3.31,2.27,6.21,4.25,9.1,6.24l5.25,9.87c.93,2.41,1.86,4.81,2.79,7.22l1.24,7.92c-2.29,4.83-4.58,9.66-6.87,14.5-2.83,1.93-5.66,3.87-9.95,6.79v-13.5l-2.25-.54c-2.76,7.39-5.52,14.79-8.28,22.18-2.05,3.67-4.09,7.34-6.14,11.01-3.63,1.87-7.26,3.73-10.88,5.6-2.44,.09-4.89,.19-7.33,.28-1.77-3.22-3.53-6.44-5.3-9.66-1.17-6.59-3.42-7.51-8.3-3.4l-4.19,1.49Z"/><path class="c" d="M325.98,97.84c1.16-3.32-.29-5.56-3.47-5.33-.8,.06-1.3,4.39-1.94,6.76,2.74,10.36-3.73,16.09-10.76,21.63-2.52,1.98-4.75,4.32-7.12,6.5l-1.62,.98c-1.79,.71-4.86,1.08-5.14,2.18-.96,3.7-.93,7.65-1.32,12.09,2.02-.65,3.49-1.12,4.96-1.59l2.26-1.02-.96-1.57,1.64-3.91c.94-1.44,1.88-2.89,2.81-4.33,3.65-2.22,7.33-4.4,10.95-6.68,9.08-5.71,8-15.6,9.93-24.25l-.22-1.45Z"/><path class="c" d="M288.83,140.16c-.72-.57-1.45-1.14-2.17-1.71l-3.28,4.8,2.71,1.64,2.74-4.72Z"/><path class="c" d="M320.5,74.16c4.73-4.69,9.46-9.39,14.2-14.08,.75,1.07,1.49,2.14,2.24,3.21,1.4,3.08,2.79,6.16,4.19,9.25-1.44,.89-2.87,1.78-4.31,2.68-5.44-.35-10.88-.71-16.32-1.06Z"/><path class="c" d="M314.49,179.07c7.07-1.34,14.14-2.67,21.2-4.01,1.43,1.31,2.85,2.62,4.28,3.93-1.46,1.1-2.92,2.2-4.39,3.3-2.79,1.17-5.59,2.34-8.38,3.51-1.76-.36-3.53-.73-5.29-1.09-2.27-1.57-4.53-3.14-6.8-4.71-.09-.38-.3-.69-.62-.92Z"/></g></g><path class="aa" d="M294.31,194.39c2.87-3.16,2.01-9.27,7.93-10.01,.55,1.46,1.11,2.92,1.66,4.38-.4,.47-.81,.93-1.21,1.4-1.22,.42-2.52,.71-3.66,1.3-1.64,.86-3.16,1.95-4.73,2.93Z"/><path class="g" d="M306.58,211.1c0,1.4-.01,2.8-.02,4.2-2.33-.47-4.66-.94-6.99-1.42-.56-.74-1.13-1.48-1.69-2.22l-1.11,2.16c-.9-.05-1.79-.1-2.69-.15-.38-7.17-5.62-5.38-9.9-5.38-.05-.43-.06-.85-.03-1.28,3.1-3.3,5.98-3.64,10.07-.9,3.61,2.42,8.2,3.37,12.35,4.97Z"/><path class="g" d="M313.52,204.21c1.4,.05,2.8,.09,4.19,.14-.17,8.2-.69,8.71-6.95,6.74,.92-2.29,1.84-4.58,2.76-6.88Z"/><path class="aa" d="M292.51,197.49c.51-.13,1.02-.25,1.53-.38,1.29,.62,2.57,1.23,3.86,1.85-.66,.76-1.33,1.52-1.99,2.29l-3.4-3.75Z"/><path class="ab" d="M331.72,208.2c-2.39,5.03-.91,8.55,3.13,10.19-4.35,2.07-9.36,4.46-14.38,6.84-.94-.47-1.89-.94-2.83-1.4-.44-.98-.88-1.96-1.32-2.94,6.04-3.35,10.01-7.84,8.46-15.37,2.31,.89,4.62,1.79,6.94,2.68Z"/><path class="aa" d="M324.79,205.52c1.54,7.53-2.42,12.02-8.46,15.37-1.4-.92-2.79-1.85-4.19-2.77,1.22-.94,2.32-2.4,3.68-2.71,3.86-.87,6.42-2.27,5.82-6.96-.11-.83,2.04-1.95,3.15-2.94Z"/><path class="aa" d="M284.18,208.31c4.27,0,9.52-1.79,9.9,5.38-3.3-1.79-6.6-3.59-9.9-5.38Z"/><path class="aa" d="M296.77,213.83l1.11-2.16c.56,.74,1.13,1.48,1.69,2.22-.93-.02-1.87-.04-2.8-.06Z"/><path class="v" d="M376.51,132.83c4.26,.07,9.15-5.1,12.63,1.52-.08,.38-.16,.76-.25,1.14-2.28,1.91-4.56,3.83-6.84,5.74-.48,0-.97-.01-1.45-.02-1.27-.85-2.54-1.71-3.81-2.56-.58-1.93-1.16-3.86-1.73-5.79l1.45-.04Z"/><path class="aa" d="M375.06,132.87c.58,1.93,1.15,3.86,1.73,5.79-1.49,.12-2.98,.23-4.47,.35,.1-4.9-.5-9.47-5.75-11.76-.42-.94-.84-1.88-1.27-2.82,7.4-1.97,7.71,4.22,9.75,8.44Z"/><path class="t" d="M366.58,127.25c5.25,2.29,5.85,6.86,5.75,11.76-1.4,1.23-2.8,2.46-4.2,3.69l-.17-.17c-.45-1.37-.9-2.74-1.36-4.11l-.02-11.16Z"/><path class="b" d="M366.49,151.05c-.87-.96-1.75-1.92-2.62-2.88v.02c.92-.92,1.85-1.83,2.78-2.75,.4,.42,.8,.84,1.2,1.25,.5,.98,.99,1.96,1.49,2.93-.95,.47-1.9,.95-2.85,1.42Z"/><path class="h" d="M380.6,141.21c.48,0,.96,.01,1.45,.02-.78,1.35-1.55,2.7-2.33,4.05-.54-.36-1.08-.73-1.62-1.09,.83-.99,1.67-1.99,2.5-2.98Z"/><path class="t" d="M367.85,146.7c-.4-.42-.8-.84-1.2-1.25,0-.94,.01-1.88,.02-2.82,.43,0,.86-.04,1.29-.1l.17,.17c-.09,1.34-.19,2.67-.28,4.01Z"/><path class="g" d="M372.26,152.41l.31-.52c-.12,.16-.24,.31-.36,.47l.05,.05Z"/><path class="n" d="M345.53,148.09c-.09-5.57,3.98-3.84,6.99-3.97,3.29,3.72,6.58,7.44,9.87,11.16-.76,1.88-1.53,3.76-2.29,5.65-3.42,2.01-11.04,1.77-4.52,9.09,.8,.9-1.02,4.15-1.63,6.31-4.2-1.17-5.86-3.55-5.1-8.18,.37-2.28-1.14-4.87-1.8-7.32,.8-2.21,1.61-4.42,2.19-6.04-1.35-2.44-2.53-4.56-3.71-6.68Z"/><path class="k" d="M347.05,160.81c.66,2.45,2.18,5.04,1.8,7.32-.76,4.63,.9,7.01,5.1,8.18,2.92,1.79,5.84,3.58,8.76,5.37-1.97,.03-3.94,.07-5.91,.1-5.01,3.05-8.16-2.37-12.42-2.73-1.47-.02-2.94-.05-4.41-.07-1.43-1.31-2.85-2.62-4.28-3.93,.14-.63,.28-1.27,.41-1.91,3.13-1.69,6.26-3.37,10.71-5.77-3.06-1.41-4.23-1.95-5.41-2.5,.43-1.41,.85-2.82,1.28-4.24,1.45,.05,2.91,.1,4.36,.16Z"/><path class="x" d="M356.8,181.79c1.97-.03,3.94-.07,5.91-.1,.37-.04,.73-.04,1.09,0-.46,1.86-.91,3.72-1.37,5.59-.43,1-.86,2-1.3,2.99-3.76,2.32-7.52,4.63-11.28,6.95,.68-3,1.35-6,2.02-8.99,1.64-2.14,3.28-4.28,4.92-6.42Z"/><path class="b" d="M362.39,155.28c-3.29-3.72-6.58-7.44-9.87-11.16,1.44-1.41,2.88-2.82,4.32-4.23,.93,.9,1.86,1.81,2.8,2.71,1.41,1.87,2.82,3.73,4.22,5.6v-.02c-.48,2.37-.97,4.73-1.46,7.1Z"/><path class="x" d="M365.26,187.28c.97-.92,1.95-1.84,2.92-2.76-.97,.92-1.95,1.84-2.92,2.76Z"/><path class="x" d="M369.42,184.54c.48-.48,.95-.95,1.43-1.43-.48,.48-.95,.95-1.43,1.43Z"/><path class="l" d="M361.14,190.26c.43-1,.86-1.99,1.3-2.99,0,.92,.02,1.85,.02,2.77-.42,.2-.86,.27-1.32,.22Z"/><path class="m" d="M351.89,188.21c-.68,3-1.35,6-2.03,9-1.84,.43-3.67,.86-5.51,1.29-1.01-.09-2.02-.18-3.03-.27-1.2-.33-2.4-.66-3.59-.98-.65-.04-1.3-.08-1.95-.12-.89-.03-1.79-.07-2.69-.1-.45-1.37-.9-2.74-1.35-4.1,.93-1.4,1.86-2.81,2.8-4.21,.86-1.32,1.71-2.63,2.57-3.95,3.89,1.01,5.97,7.85,11.5,3.56,1.09-.04,2.19-.08,3.28-.12Z"/><path class="j" d="M341.32,198.23c1.01,.09,2.02,.18,3.03,.27-1.05,.4-2.1,.8-3.15,1.2l.12-1.47Z"/><path class="t" d="M375.06,132.87c-2.03-4.22-2.35-10.42-9.75-8.44-.62-3.43-1.24-6.86-1.86-10.28,1.15-2.1,2.3-4.2,3.45-6.3,.41-.11,.82-.15,1.25-.14,.92-1.48,1.6-3.24,2.85-4.35,.98-.87,2.68-.93,4.06-1.35-1.7,2.8-3.75,5.45-5.03,8.43-2.45,5.71-.17,10.53,4.87,11.19l1.58,.08c.03,2.35,.05,4.71,.08,7.06-.02,1.35-.04,2.71-.06,4.06-.48,.01-.97,.03-1.45,.04Z"/><path class="h" d="M374.91,121.63c-5.04-.66-7.32-5.48-4.87-11.19,1.28-2.98,3.33-5.63,5.03-8.43,1.85,.94,3.69,1.88,5.54,2.82,.03,.94,.06,1.88,.1,2.82-.96,1.4-1.92,2.8-2.89,4.2-.97,3.26-1.94,6.52-2.9,9.78Z"/><path class="aa" d="M374.91,121.63c.97-3.26,1.94-6.52,2.9-9.78,5.1,4.03,3.3,7.13-1.32,9.86-.53-.03-1.05-.05-1.58-.08Z"/><path class="w" d="M376.44,62.97c.3-1.25,1.03-2.59,.8-3.73-.42-2.06-1.43-4-2.19-5.99,0-2.83-.02-5.67-.02-8.5,1.41-1.27,3.69-2.34,4.03-3.85,.65-2.88,.19-6.01,.19-9.03,.96,.57,1.92,1.14,2.88,1.71-.16,3.39-.32,6.78-.49,10.17,.6,5.48,1.2,10.96,1.81,16.44-2.33,.93-4.67,1.85-7,2.78Z"/><path class="y" d="M380.91,80c-.62,.82-1.24,1.65-1.85,2.47-.4,.52-.8,1.05-1.2,1.57-.37,.03-.74,.06-1.12,.09-1.5-1.44-4.2-2.84-4.26-4.34-.17-4.28,.74-8.6,1.23-12.9,1.71,.42,3.42,.85,5.13,1.27,.69,3.95,1.38,7.9,2.08,11.85Z"/><path class="y" d="M376.44,62.97c2.33-.93,4.67-1.85,7-2.78-.43,3.01,1.59,7.68-4.6,6.78-.8-1.34-1.6-2.67-2.4-4Z"/><path class="n" d="M373.71,66.88c-.49,4.3-1.4,8.62-1.23,12.9,.06,1.5,2.76,2.9,4.26,4.34-1.16,2.23-1.79,5.09-3.57,6.59-5.58,4.69-5.83,10.6-5.02,16.99-.42-.01-.84,.03-1.25,.14-5.06-.56-4.56-4.36-4.4-7.8,.38-8.51,.73-17.02,1.46-25.5,.18-2.07,1.77-4.02,2.71-6.02,2.13-1.38,4.26-2.76,6.63-4.3,.15,.96,.28,1.81,.41,2.65Z"/><path class="x" d="M375.02,44.76c0,2.83,.02,5.66,.02,8.5-.7,2.2-1.4,4.41-2.1,6.61l-2.53-.14c-.67-6.51-1.33-13.01-2-19.52l1.47-1.21,5.15,5.76Z"/><path class="g" d="M368.15,107.7c-.82-6.39-.57-12.31,5.02-16.99,1.78-1.49,2.41-4.35,3.57-6.59,.37-.03,.74-.06,1.12-.09,.98,5.56,1.95,11.13,2.93,16.69-.06,1.36-.13,2.73-.19,4.09-1.85-.94-3.69-1.88-5.54-2.82-1.38,.42-3.08,.48-4.06,1.35-1.25,1.11-1.93,2.87-2.85,4.35Z"/><path class="h" d="M394.59,104.9c-.51,.35-1.02,.71-1.53,1.06l-.34-.56c.62-.17,1.24-.34,1.86-.51h0Z"/><path class="s" d="M342.69,160.65c-.43,1.41-.85,2.82-1.28,4.24-1.33,.27-2.65,.54-3.98,.81-.96-.88-1.98-2.55-2.87-2.48-2.58,.2-5.1,1.1-7.65,1.73,.44-.89,.89-1.79,1.33-2.68,.28-.94,.55-1.87,.83-2.81,.79-1.02,2.22-2.02,2.26-3.08,.25-5.42,3.46-7.3,8.26-7.59,1.04,.93,2.08,1.86,3.12,2.78,0,3.02-.02,6.05-.03,9.08Z"/><path class="m" d="M329.07,159.45c-.28,.94-.55,1.87-.83,2.81-.56-.5-1.12-1.01-1.67-1.51,.83-.43,1.67-.86,2.5-1.3Z"/><path class="m" d="M326.05,164.08c-.26-.19-.52-.39-.77-.58,.29,.16,.54,.35,.77,.58Z"/><path class="x" d="M342.69,160.65c.01-3.03,.02-6.06,.03-9.08,.94-1.16,1.88-2.32,2.81-3.48,1.18,2.12,2.36,4.25,3.71,6.68-.59,1.61-1.39,3.83-2.19,6.04-1.45-.05-2.91-.1-4.36-.16Z"/><path class="k" d="M352.72,90.89c.43,.13,1.07,.13,1.27,.42,2.47,3.72,1.59,15.48-1.39,19.18-1.37-1.39-2.74-2.79-4.12-4.18,1.41-5.14,2.82-10.28,4.24-15.42Z"/><path class="d" d="M363.45,114.14c.62,3.43,1.24,6.86,1.86,10.28,.42,.94,.85,1.88,1.27,2.82,0,3.72,0,7.44,.02,11.16,.02,1.4,.05,2.81,.07,4.21,0,.94-.01,1.88-.02,2.82-.93,.92-1.86,1.83-2.79,2.75-1.41-1.87-2.82-3.73-4.22-5.6,.08-8.81,.16-17.63,.24-26.44,1.19-.67,2.39-1.34,3.58-2.01Z"/><path class="t" d="M334.53,188.71c-.93,1.4-1.86,2.81-2.8,4.21-.5,.43-.99,.85-1.49,1.28-.98,.91-1.97,1.82-2.95,2.72-3.01-.72-6.01-1.44-8.21-1.97,1.12-4.06,1.97-7.16,2.83-10.26,1.76,.36,3.53,.73,5.29,1.09,1.5,.97,3,1.95,4.51,2.92-1.23,.33-2.46,.66-3.68,1l.8,1.5c.97-.83,1.93-1.66,2.9-2.48h2.81Z"/><path class="m" d="M327.3,196.92c.98-.91,1.97-1.81,2.95-2.72-.98,.91-1.97,1.82-2.95,2.72Z"/><path class="t" d="M333.08,197.03c.9,.03,1.79,.07,2.69,.1-.79,.65-1.58,1.31-2.36,1.96-.11-.69-.22-1.38-.32-2.07Z"/><path class="ab" d="M337.43,165.7c1.33-.27,2.65-.54,3.98-.81,1.17,.54,2.35,1.08,5.41,2.5-4.45,2.4-7.58,4.08-10.71,5.77l-.08,.02c-.56-.4-1.13-.81-1.69-1.22,1.03-2.09,2.06-4.17,3.09-6.26Z"/><path class="k" d="M334.34,171.96c.56,.41,1.13,.81,1.69,1.22-1.05-.1-2.09-.21-3.14-.31l1.45-.9Z"/><path class="j" d="M348.61,188.32c-5.53,4.29-7.61-2.55-11.5-3.56-.51-.83-1.01-1.65-1.52-2.48,1.46-1.1,2.92-2.2,4.39-3.3,1.47,.02,2.94,.05,4.41,.07,1.41,3.09,2.81,6.17,4.22,9.26Z"/><path class="ab" d="M335.59,182.29c.51,.83,1.01,1.65,1.52,2.48-.86,1.32-1.72,2.63-2.57,3.95-.94,0-1.87,0-2.81,.01h0c-1.5-.98-3-1.96-4.51-2.93l8.38-3.51Z"/><path class="aa" d="M366.66,142.62c-.02-1.4-.05-2.81-.07-4.21,.45,1.37,.9,2.74,1.36,4.11-.43,.06-.86,.09-1.29,.1Z"/><path class="w" d="M348.61,188.32c-1.41-3.09-2.82-6.18-4.22-9.26,4.26,.36,7.41,5.77,12.42,2.73-1.64,2.14-3.29,4.29-4.92,6.42-1.09,.03-2.18,.07-3.27,.11Z"/><path class="ab" d="M331.72,188.72c-.97,.83-1.93,1.66-2.9,2.48l-.8-1.5c1.23-.33,2.46-.66,3.68-1h0Z"/><g><path class="c" d="M57.47,562.16h8.8c9.25,0,15.33,4.84,15.33,15.79s-6.08,16.08-14.92,16.08h-9.21v-31.87Zm8.41,26.06c4.96,0,8.33-2.65,8.33-10.27s-3.37-9.98-8.33-9.98h-1.19v20.25h1.19Z"/><path class="c" d="M96.97,575.41h-9.77v-5.64h16.97v24.26h-7.2v-18.62Zm-1.51-13.83c0-2.63,2-4.47,4.78-4.47s4.78,1.84,4.78,4.47-2,4.4-4.78,4.4-4.78-1.75-4.78-4.4Z"/><path class="c" d="M115.24,598.14c0-1.98,1.3-3.6,3.77-4.86v-.2c-1.34-.83-2.44-2.08-2.44-4.12,0-1.62,1.17-3.37,2.91-4.56v-.2c-1.79-1.19-3.22-3.4-3.22-6.23,0-5.82,4.9-8.79,10.4-8.79,1.44,0,2.81,.2,3.98,.59h9.87v5.29h-4.89c.55,.74,1.05,1.93,1.05,3.17,0,5.58-4.38,8.13-10.01,8.13-.98,0-2.12-.15-3.34-.49-.75,.52-1.08,.98-1.08,1.79,0,1.29,1.28,1.82,4.13,1.82h4.48c6.36,0,9.86,1.78,9.86,6.14,0,5.05-5.63,8.74-14.47,8.74-6.31,0-10.99-1.87-10.99-6.21Zm18.61-1.29c0-1.54-1.49-1.86-4.26-1.86h-3.06c-1.76,0-2.8-.1-3.69-.32-1.23,.76-1.73,1.5-1.73,2.37,0,1.82,2.37,2.75,6.15,2.75s6.58-1.27,6.58-2.94Zm-3.52-18.88c0-2.55-1.67-3.95-3.68-3.95s-3.64,1.4-3.64,3.95,1.65,4.04,3.64,4.04,3.68-1.39,3.68-4.04Z"/><path class="c" d="M155.65,575.41h-9.77v-5.64h16.97v24.26h-7.2v-18.62Zm-1.51-13.83c0-2.63,2-4.47,4.78-4.47s4.78,1.84,4.78,4.47-2,4.4-4.78,4.4-4.78-1.75-4.78-4.4Z"/><path class="c" d="M179.91,583.98v-8.57h-6.11v-5.36l6.44-.28,.93-7.42h5.95v7.42h10.23v5.64h-10.23v8.47c0,3.69,1.56,5.08,5.1,5.08,1.81,0,3.36-.37,4.79-.86l1.3,5.21c-2.15,.64-4.7,1.31-7.93,1.31-7.72,0-10.46-4.28-10.46-10.64Z"/><path class="c" d="M203.72,587.3c0-5.44,4.49-8.21,15.96-8.9-.25-2.17-1.89-3.5-5.14-3.5-2.34,0-4.67,.9-7.4,2.27l-2.57-4.71c3.36-1.92,7.23-3.28,11.35-3.28,6.82,0,10.95,3.55,10.95,10.98v13.87h-5.88l-.52-2.73h-.18c-2.45,1.84-5.49,3.32-8.6,3.32-4.91,0-7.98-3.24-7.98-7.31Zm15.96-.58v-3.97c-7.14,.36-9.05,1.91-9.05,3.98,0,1.56,1.32,2.32,3.35,2.32,2.16,0,3.99-.99,5.71-2.32Z"/><path class="c" d="M240.12,584.54v-19.13h-7.64v-5.64h14.83v25.06c0,3,1.93,3.97,3.95,3.97,1.12,0,2.31-.24,3.78-.79l1.59,5.29c-2.52,.82-4.22,1.31-7.24,1.31-6.11,0-9.28-3.92-9.28-10.08Z"/><path class="c" d="M292.19,562.16h8.8c9.25,0,15.33,4.84,15.33,15.79s-6.08,16.08-14.92,16.08h-9.21v-31.87Zm8.41,26.06c4.96,0,8.33-2.65,8.33-10.27s-3.37-9.98-8.33-9.98h-1.19v20.25h1.19Z"/><path class="c" d="M320.77,581.89c0-7.94,6.12-12.7,12.62-12.7,7.48,0,11.42,5.05,11.42,11.64,0,1.32-.2,2.62-.3,3.22h-18.41v-4.82h13.54l-1.13,1.37c0-3.89-1.69-5.94-4.88-5.94-3.55,0-5.89,2.41-5.89,7.23s2.74,7.25,7.46,7.25c2.2,0,4.1-.6,6.25-1.68l2.38,4.33c-2.77,1.78-6.37,2.84-9.62,2.84-7.56,0-13.45-4.67-13.45-12.73Z"/><path class="c" d="M350.01,590.9l3.06-4.49c2.99,1.85,6.32,2.88,9.79,2.88,2.67,0,3.85-.89,3.85-2.08,0-1.35-1.18-1.85-5.94-2.85-6.6-1.41-9.22-3.83-9.22-7.58,0-4.52,4.22-7.6,11.15-7.6,4.33,0,7.98,1.7,10.5,3.31l-3.23,4.32c-2.45-1.48-5.26-2.32-7.94-2.32-2.25,0-3.36,.8-3.36,1.94,0,1.35,1.49,1.66,5.6,2.59,7.49,1.68,9.57,3.81,9.57,7.76,0,4.39-4.19,7.83-11.97,7.83-4.33,0-8.8-1.68-11.86-3.72Z"/><path class="c" d="M390.37,575.41h-9.77v-5.64h16.97v24.26h-7.2v-18.62Zm-1.51-13.83c0-2.63,2-4.47,4.78-4.47s4.78,1.84,4.78,4.47-2,4.4-4.78,4.4-4.78-1.75-4.78-4.4Z"/><path class="c" d="M408.64,598.14c0-1.98,1.3-3.6,3.77-4.86v-.2c-1.34-.83-2.45-2.08-2.45-4.12,0-1.62,1.17-3.37,2.91-4.56v-.2c-1.79-1.19-3.22-3.4-3.22-6.23,0-5.82,4.9-8.79,10.4-8.79,1.44,0,2.81,.2,3.98,.59h9.87v5.29h-4.89c.55,.74,1.05,1.93,1.05,3.17,0,5.58-4.38,8.13-10,8.13-.98,0-2.12-.15-3.34-.49-.75,.52-1.08,.98-1.08,1.79,0,1.29,1.28,1.82,4.13,1.82h4.48c6.36,0,9.86,1.78,9.86,6.14,0,5.05-5.63,8.74-14.47,8.74-6.31,0-10.99-1.87-10.99-6.21Zm18.61-1.29c0-1.54-1.49-1.86-4.26-1.86h-3.06c-1.76,0-2.8-.1-3.69-.32-1.23,.76-1.73,1.5-1.73,2.37,0,1.82,2.37,2.75,6.15,2.75s6.58-1.27,6.58-2.94Zm-3.52-18.88c0-2.55-1.67-3.95-3.68-3.95s-3.64,1.4-3.64,3.95,1.65,4.04,3.64,4.04,3.68-1.39,3.68-4.04Z"/><path class="c" d="M438.97,569.77h5.87l.52,3.23h.2c2.11-2.06,4.77-3.82,8.38-3.82,5.48,0,7.9,3.75,7.9,9.87v14.98h-7.2v-14.05c0-3.23-.93-4.66-3.56-4.66-1.92,0-3.23,.89-4.91,2.53v16.19h-7.2v-24.26Z"/></g><path class="c" d="M211.26,395.57v-102.38c3.78,4.29,6.3,7.13,8.81,9.99,9.98,11.37,20,22.69,29.87,34.15,1.57,1.82,2.41,4.26,3.59,6.41l-.31,.29,.22,.36c-1.05,2.01-2.1,4.03-3.15,6.04-.86,2.39-1.71,4.78-2.57,7.16l-4.5,8.1c-.72,1.55-1.44,3.11-2.17,4.66-.92,3.15-1.84,6.31-2.47,8.47-6.15,2.87-11.8,5.5-17.44,8.13-2.75,2.82-5.5,5.65-8.25,8.47l-1.63,.14Z"/><path class="c" d="M211.07,441.69c.12-12.2,.23-24.41,.35-36.61l1.47,.31c.36,.5,.72,1,1.09,1.5,3.84,2.53,7.69,5.06,11.53,7.59,6.75,3.46,21.62,.7,25.45-4.88,.69-1,1.15-3.42,.73-3.7-1.52-1.01-3.45-1.38-5.23-1.99-.36-.11-.73-.14-1.1-.11,.37-.49,.73-.98,1.1-1.47l5.82-3.82c2.72-.74,5.43-1.48,8.15-2.22,.91,1.61,1.81,3.23,2.72,4.84,.49,1.39,.97,2.77,1.46,4.16,.11,1.42,.21,2.85,.32,4.27-8.94,5.54-17.88,11.07-26.82,16.61-5.11,1.48-10.21,2.96-15.32,4.43-1.91,1.77-3.83,3.55-5.74,5.32-.24,1.42-.48,2.84-.72,4.26l-.63,1.26c-1.54,.08-3.08,.17-4.62,.25Z"/></svg>