<?xml version="1.0" encoding="UTF-8"?><svg id="a" xmlns="http://www.w3.org/2000/svg" viewBox="0 0 189.79 118.27"><defs><style>.b{fill:#d93227;}</style></defs><path class="b" d="M45.77,46.82c-6.09-4.88-12.2-9.73-18.26-14.66-7.62-6.2-15.2-12.46-22.78-18.7C2.37,11.53,.02,9.5,1.09,5.97,2.2,2.33,4.98,.64,8.6,.21,9.96,.05,11.34,.04,12.71,.04,52.49,.03,92.26,.08,132.04,0c12.26-.02,24.13,1.45,34.92,7.78,6.41,3.76,11.88,8.54,15.58,15.11-.61,5.62,1.49,10.05,5.88,13.49,5.58,20.61-6.78,42.51-22.91,49.76-3.91,1.76-8.6,1.79-12.93,2.62-3.04-1.44-6.09-2.89-9.13-4.33l-.02-.03c1.21-5-4.26-1.85-4.69-4.41,.12-1.26-.33-2.36-.58-3.5-.16-.74-.03-1.54-.03-2.32,.78,.11,1.62,.08,2.33,.36,1.3,.5,2.53,1.18,4.46,2.11-.5-1.81-.7-2.53-.64-2.34,3.12-1.81,5.79-3.37,8.87-5.16-1.82-1.29-2.9-1.71-3.46-2.51-2.45-3.48-3.79-7.33-3.18-11.67-.24-3.08-.02-6.28-.8-9.22-2.25-8.45-11.41-11.08-17.86-5.1-2.39,2.22-4.61,5.01-5.9,7.97-3.87,8.85-6.54,17.9,.7,26.56-.73,3.4,2.06,3.22,3.83,3.26,2.61,.07,5.24-.54,8.22-.91-.41,1.21-.77,2.27-.9,2.66,1.32,1.35,2.39,2.45,3.47,3.56-1.88,1.39-4.74,.65-4.8,3.64h-.03c-1.78,.42-3.56,.85-5.34,1.28-9.28,.47-16.88-4.95-20.57-14.68-6.67-17.57,3.82-40.86,21.41-47.12,7.03-2.5,13.73-1.43,19.67,3.3,.85,.67,1.68,1.36,2.57,2.08,2.59-5.49,4.66-6.14,15.09-4.47-1.22,5.4-2.43,10.76-3.65,16.12-.52,.69-1.44,1.35-1.48,2.06-.14,2.77-1.87,3.38-4.29,3.7-.22-1.92-.41-3.65-.61-5.37l-1.37,.18c.49,3.66,.97,7.33,1.32,9.96-2.26,1.62-4.74,2.48-5.35,4.06-.96,2.49-.65,5.47,3.78,7.3-.64-2.88-1.12-5.09-1.64-7.44,3.2,.33,5.04,1.07,3.73,4.51-.72,1.88-.84,3.99-1.13,6.01-.21,1.42-.27,2.87-.39,4.3l-1.13,.04c1.82,2.78,4.17,4.77,7.66,3.47,2.49-.93,4.7-2.61,7.13-3.72,2-.92,2.22-2.09,1.12-3.79,2.57-5.19,5.14-10.39,7.71-15.58,.95-2.92,1.84-5.86,2.87-8.75,.61-1.71,1.5-3.32,2.18-5,.51-1.24,1.43-2.62,1.23-3.77-.81-4.69-4.56-3.28-8.42-3,.81-1.8,1.38-3.05,1.69-3.73-1.65-1.15-3.28-2.31-4.94-3.42-.78-.52-1.63-.94-2.45-1.41-9.76-9.25-21.38-12.96-34.75-12.26-25.73,1.35-45.18,24.29-41.96,49.85,.35,2.82,1,5.62,1.67,8.39,.73,3.05-.31,4.83-3.41,5.37-4.48,.78-8.92,.32-12.48-2.46-7.24-5.64-14.17-11.68-21.23-17.55-.16-1.4-.32-2.79-.48-4.18-.96,.31-1.56,.51-2.88,.94,1.52-3.49,2.76-6.33,4.01-9.18,6.77-.93,6.86-.98,7.11-4.24-1.9,.08-4.5,.94-5.56,.03-1.03-.88-.49-3.6-.64-5.51l-.96-.42c-.98,2.39-1.97,4.79-3.07,7.49-3.96-.62-6.4,1.55-7.54,5.54-.07,.24-.61,.35-.93,.52Zm20.05-20.15h-1.04c-.33,1.4-.67,2.79-1.02,4.26-2.26-1.33-4.27-2.51-6.79-3.99,3.83,3.73,7.07,6.87,10.03,9.75v-1.74c1.75-.88,3.07-1.54,4.39-2.2l-4.69-2.67-.88-3.41Zm113.68,2.79l1.73-.42c-.36-1.49-.71-2.99-1.16-4.45-.02-.06-1.07,.21-1.64,.32l1.07,4.54Z"/><path class="b" d="M78.02,118.25c-22.08,0-44.16,.09-66.23-.11-2.8-.03-5.98-.98-8.3-2.54-3.91-2.62-3.46-6.9,.66-9.28,11.09-6.42,22.24-12.72,33.38-19.06,6.48-3.69,12.99-7.34,19.46-11.06,4.99-2.87,6.57-3.08,10.67,.77,8.17,7.68,17.47,10.13,28.22,7.12,2.9-.81,4.68,.51,6.38,2.62,6.74,8.36,15.19,14.26,25.58,17.19,16.33,4.61,31.29,1.65,44.91-8.34,.9-.66,1.82-1.34,2.59-2.13,2.49-2.55,4.59-2,6.96,.34,5.32,5.25,5.27,5.57-.54,10.52-12.69,10.83-27.8,13.9-43.88,13.92-19.96,.03-39.91,0-59.87,0v.02Z"/><path class="b" d="M1.2,91.81c-.4-1.36-1.13-2.71-1.14-4.07C-.01,68.82-.04,49.9,.1,30.98c.01-1.74,.84-4.32,2.09-4.97,1.17-.6,3.77,.39,5.11,1.47,9.09,7.32,18,14.84,26.98,22.3-.01,1.52-.03,3.04-.04,4.56-.39,.31-.78,.62-1.17,.92l1.17,.58c.64,.99,1.28,1.97,1.92,2.96,1.49-2.91-.12-3.02-1.91-2.96,0-.5,0-1,0-1.49,1.22-.8,2.37-2.01,3.71-.06,1.28,1.87,2.64,3.68,4.1,5.41,.58,.69,1.63,1.65,2.25,1.51,3.1-.7,3.84,2.4,5.87,3.34-.69,1.5-1.41,2.98-2.05,4.5-.23,.55-.26,1.18-.39,1.77-10.78,6.12-21.57,12.25-32.35,18.37-4.06-2.42-8.13-4.83-12.55-7.46,.1,1.4,.48,2.75,.23,3.98-.41,2.08-1.21,4.08-1.85,6.11Zm22.07-10.82c.98-.57,2.56-.94,2.99-1.86,.87-1.84,1.91-4.22,1.39-5.92-.48-1.58-2.84-3.48-4.49-3.59-2.62-.18-5.33,1-8.59,1.74,2.72,3.01,5.6,6.19,8.7,9.63Zm11.87-17.19c-2.41-.75-4.13-1.88-5.63-1.63-2.59,.42-3.89,3.69-2.95,6.13,1.25,3.22,4.7,5.04,7.28,3.7,2.2-1.15,4.29-2.52,6.43-3.79l.08-.55c-3.16,.47-6.33,.93-10.03,1.48,1.73-1.92,2.92-3.24,4.81-5.33Zm-22.75,20.14l-.22,1.22c3.07,2.15,6.24,2.84,8.27-.96,1.02-1.9,.65-4.29-1.72-5.85-2.66-1.75-4.91-1.62-6.73,.95-.57,.81-.46,2.11-.78,3.84,1.98-1.63,2.92-2.96,4-3.1,.77-.1,2.1,1.27,2.52,2.27,.39,.91-.1,2.2-.19,3.2-2.21-.67-3.68-1.12-5.16-1.57Z"/><path class="b" d="M132.48,87.38c.07-2.99,2.92-2.25,4.8-3.64-1.08-1.11-2.15-2.2-3.47-3.56,.13-.39,.49-1.45,.9-2.66-2.98,.37-5.61,.98-8.22,.91-1.76-.05-4.56,.14-3.83-3.26,2.95,.47,6.32,2.04,8.76,1.14,3.39-1.26,6.94-3.83,8.87-6.84,2.8-4.37,4.22-9.63,6.23-14.51-.61,4.35,.73,8.19,3.18,11.67,.56,.79,1.64,1.22,3.46,2.51-3.08,1.79-5.76,3.35-8.87,5.16-.05-.2,.15,.53,.64,2.34-1.93-.93-3.16-1.61-4.46-2.11-.72-.28-1.55-.25-2.33-.36,0,.78-.13,1.58,.03,2.32,.25,1.14,.69,2.24,.58,3.5,.43,2.55,5.9-.59,4.69,4.41-.59-.58-1.18-1.16-1.47-1.44-3.24,1.51-6.37,2.97-9.49,4.43Z"/><path class="b" d="M168.99,69.15c1.1,1.7,.88,2.87-1.12,3.79-2.44,1.12-4.64,2.79-7.13,3.72-3.48,1.3-5.83-.69-7.66-3.47l1.13-.04c.12-1.43,.18-2.88,.39-4.3,.3-2.02,.42-4.14,1.13-6.01,1.32-3.44-.52-4.18-3.73-4.51,.52,2.35,1.01,4.56,1.64,7.44-4.43-1.83-4.73-4.8-3.78-7.3,.61-1.58,3.1-2.44,5.35-4.06-.35-2.63-.84-6.29-1.32-9.96l1.37-.18c.19,1.72,.39,3.45,.61,5.37,2.42-.31,4.15-.92,4.29-3.7,.04-.71,.96-1.38,1.48-2.06-1.77,8.87-3.6,17.72-5.27,26.61-.3,1.6,0,3.31,.03,4.97,1.73-.26,3.73-.06,5.15-.87,2.66-1.51,4.98-3.6,7.45-5.45Z"/><path class="b" d="M45.77,46.82c.32-.17,.86-.28,.93-.52,1.14-3.99,3.58-6.16,7.54-5.54,1.11-2.7,2.09-5.09,3.07-7.49l.96,.42c.15,1.91-.39,4.62,.64,5.51,1.06,.91,3.66,.05,5.56-.03-.26,3.26-.34,3.32-7.11,4.24-1.25,2.86-2.48,5.69-4.01,9.18,1.32-.43,1.92-.63,2.88-.94,.16,1.39,.32,2.78,.48,4.18-3.64-3.01-7.29-6.02-10.93-9.03Z"/><path class="b" d="M168.87,24.5c.82,.47,1.67,.89,2.45,1.41,1.66,1.11,3.29,2.27,4.94,3.42-.31,.68-.88,1.93-1.69,3.73,3.86-.28,7.61-1.7,8.42,3,.2,1.16-.73,2.54-1.23,3.77-.69,1.68-1.57,3.29-2.18,5-1.03,2.89-1.92,5.83-2.87,8.75,.62-6.31,1.12-12.69-1.65-18.62-1.71-3.65-4.1-6.98-6.18-10.46Z"/><path class="b" d="M1.2,91.81c.64-2.03,1.44-4.04,1.85-6.11,.24-1.23-.13-2.57-.23-3.98,4.42,2.62,8.48,5.04,12.55,7.46-2.65,1.51-5.26,3.11-7.97,4.5-2.55,1.3-4.73,.76-6.19-1.86Z"/><path class="b" d="M34.23,54.33c.01-1.52,.03-3.04,.04-4.56,4.93,3.93,9.91,7.79,14.76,11.8,3.85,3.18,3.27,6.79-1.32,9.23,.12-.59,.16-1.22,.39-1.77,.64-1.52,1.36-3,2.05-4.5-2.03-.93-2.77-4.03-5.87-3.34-.62,.14-1.67-.83-2.25-1.51-1.45-1.73-2.82-3.54-4.1-5.41-1.34-1.95-2.49-.74-3.71,.06h0Z"/><path class="b" d="M188.42,36.38c-4.39-3.44-6.49-7.87-5.88-13.49,1.96,4.5,3.92,8.99,5.88,13.49Z"/><path class="b" d="M143.46,84.43c3.04,1.44,6.09,2.89,9.13,4.33-3.78,.11-7.14-.67-9.13-4.33Z"/><path class="b" d="M127.1,88.67c1.78-.43,3.56-.86,5.34-1.29-1.78,.43-3.56,.86-5.34,1.29Z"/><path class="b" d="M65.81,26.67l.88,3.41c1.78,1.01,3.23,1.84,4.69,2.67-1.32,.66-2.65,1.33-4.39,2.2v1.74c-2.96-2.88-6.19-6.02-10.03-9.75,2.51,1.48,4.53,2.66,6.79,3.99,.35-1.47,.68-2.86,1.02-4.25h1.04Z"/><path class="b" d="M179.49,29.46l-1.07-4.54c.57-.12,1.62-.38,1.64-.32,.45,1.46,.8,2.96,1.16,4.45l-1.73,.42Z"/><path class="b" d="M23.28,80.99c-3.11-3.44-5.98-6.61-8.7-9.63,3.27-.74,5.98-1.92,8.59-1.74,1.65,.12,4.01,2.02,4.49,3.59,.52,1.7-.52,4.08-1.39,5.92-.43,.91-2.01,1.29-2.99,1.86Z"/><path class="b" d="M35.15,63.8c-1.89,2.1-3.07,3.41-4.81,5.33,3.7-.55,6.86-1.01,10.03-1.48l-.08,.55c-2.14,1.27-4.23,2.64-6.43,3.79-2.57,1.34-6.03-.48-7.28-3.7-.95-2.43,.36-5.71,2.95-6.13,1.5-.24,3.22,.88,5.63,1.63Z"/><path class="b" d="M12.4,83.94c1.48,.45,2.95,.9,5.16,1.57,.09-1,.58-2.29,.19-3.2-.43-.99-1.75-2.36-2.52-2.27-1.09,.14-2.02,1.47-4,3.1,.32-1.73,.2-3.03,.78-3.84,1.82-2.57,4.07-2.69,6.73-.95,2.37,1.56,2.73,3.95,1.72,5.85-2.03,3.8-5.2,3.1-8.27,.96l.22-1.22Z"/><path class="b" d="M34.24,55.83c1.79-.06,3.4,.05,1.91,2.96-.64-.99-1.28-1.97-1.92-2.96h0Z"/><path class="b" d="M34.24,54.33c0,.5,0,1,0,1.49h0c-.39-.19-.78-.38-1.17-.57,.39-.31,.78-.62,1.17-.92h0Z"/></svg>